<?xml version="1.0" encoding="utf-8"?>
<svg version="1.1" xmlns:xlink="http://www.w3.org/1999/xlink" width="1004px" height="182px" xmlns="http://www.w3.org/2000/svg">
  <g transform="matrix(1 0 0 1 -341 -384 )">
    <path d="M 998.240881458967 176.508333333333  L 1.82188449848025 176.508333333333  C 1.82188449848025 176.508333333333  0.303647416413378 88.3033333333334  0.303647416413378 88.6966666666667  C 15.0611079969221 88.3249907186607  55.1987571351525 86.5333333333333  86.0334346504559 86.5333333333333  C 138.918693009119 86.5333333333333  134.617021276596 114.066666666667  178.139817629179 114.066666666667  C 221.662613981763 114.066666666667  205.763045684648 63.1354612436238  272.270516717325 63.5888888888887  C 320.348024316109 63.9166666666667  327.35035358822 81.1069767869812  356.279635258359 81.2888888888887  C 408.405775075988 81.6166666666667  403.851063829787 0.32777777777748  455.471124620061 0.655555555555406  C 507.091185410335 0.983333333333333  480.309570929724 85.1603052959895  539.480243161094 90.4666666666667  C 572.37537993921 93.4166666666667  585.786474164134 89.975  629.562310030395 92.4333333333333  C 673.338145896657 94.8916666666667  672.579027355623 144.55  723.693009118541 144.877777777778  C 774.806990881459 145.205555555555  763.840354156343 127.03769731101  814.787234042553 127.177777777778  C 869.838854021777 127.329144390223  872.480243161094 146.188888888889  912.966565349544 146.844444444444  C 946.909868349617 147.394055267379  974.100911854103 113.083333333333  995.963525835866 114.066666666667  C 996.570820668693 114.656666666667  998.240881458967 176.508333333333  998.240881458967 176.508333333333  Z " fill-rule="nonzero" fill="#49a9ee" stroke="none" transform="matrix(1 0 0 1 343 386 )" />
    <path d="M 1.82188449848025 176.508333333333  C 1.82188449848025 176.508333333333  0.303647416413378 88.3033333333334  0.303647416413378 88.6966666666667  C 15.0611079969221 88.3249907186607  55.1987571351525 86.5333333333333  86.0334346504559 86.5333333333333  C 138.918693009119 86.5333333333333  134.617021276596 114.066666666667  178.139817629179 114.066666666667  C 221.662613981763 114.066666666667  205.763045684648 63.1354612436238  272.270516717325 63.5888888888887  C 320.348024316109 63.9166666666667  327.35035358822 81.1069767869812  356.279635258359 81.2888888888887  C 408.405775075988 81.6166666666667  403.851063829787 0.32777777777748  455.471124620061 0.655555555555406  C 507.091185410335 0.983333333333333  480.309570929724 85.1603052959895  539.480243161094 90.4666666666667  C 572.37537993921 93.4166666666667  585.786474164134 89.975  629.562310030395 92.4333333333333  C 673.338145896657 94.8916666666667  672.579027355623 144.55  723.693009118541 144.877777777778  C 774.806990881459 145.205555555555  763.840354156343 127.03769731101  814.787234042553 127.177777777778  C 869.838854021777 127.329144390223  872.480243161094 146.188888888889  912.966565349544 146.844444444444  C 946.909868349617 147.394055267379  974.100911854103 113.083333333333  995.963525835866 114.066666666667  C 996.570820668693 114.656666666667  998.240881458967 176.508333333333  998.240881458967 176.508333333333  " stroke-width="4" stroke="#2db7f5" fill="none" transform="matrix(1 0 0 1 343 386 )" />
  </g>
</svg>