<?xml version="1.0" encoding="utf-8"?>
<svg version="1.1" xmlns:xlink="http://www.w3.org/1999/xlink" width="998px" height="151px" xmlns="http://www.w3.org/2000/svg">
  <g transform="matrix(1 0 0 1 -342 -386 )">
    <path d="M 0 88.1422222222221  C 0 88.1422222222221  33.1161077235772 86.8266666666667  85.9502032520325 86.8266666666667  C 138.784298780488 86.8266666666667  134.486788617886 114.453333333333  177.967479674797 114.453333333333  C 221.448170731707 114.453333333333  205.563984167393 63.349479756314  272.007113821138 63.8044444444443  C 320.038109756098 64.1333333333333  327.03366475888 81.3819156913439  355.934959349593 81.5644444444443  C 408.010670731707 81.8933333333333  403.460365853659 0.32888888888859  455.030487804878 0.657777777777628  C 506.600609756098 0.986666666666667  479.844904635428 85.4489842969928  538.958333333333 90.7733333333333  C 571.821646341463 93.7333333333333  585.219766260162 90.28  628.95325203252 92.7466666666667  C 672.686737804878 95.2133333333333  671.928353658537 145.04  722.992886178862 145.368888888889  C 774.057418699187 145.697777777778  763.10139143671 127.468333573081  813.998983739837 127.608888888889  C 868.9973450838 127.760768608495  871.636178861788 146.684444444444  912.083333333333 147.342222222222  C 952.530487804878 148  969.043623597393 111.012231404959  993.988821138211 112.48  " stroke-width="2" stroke="#49a9ee" fill="none" transform="matrix(1 0 0 1 343 387 )" />
  </g>
</svg>