<?xml version="1.0" encoding="utf-8"?>
<svg version="1.1" xmlns:xlink="http://www.w3.org/1999/xlink" width="1004px" height="143px" xmlns="http://www.w3.org/2000/svg">
  <g transform="matrix(1 0 0 1 -342 -421 )">
    <path d="M 998.240881458967 137.616666666667  L 1.82188449848025 137.616666666667  C 1.82188449848025 137.616666666667  0.303647416413378 68.8466666666667  0.303647416413378 69.1533333333334  C 15.0611079969221 68.8635520857354  55.1987571351525 67.4666666666667  86.0334346504559 67.4666666666667  C 138.918693009119 67.4666666666667  134.617021276596 88.9333333333333  178.139817629179 88.9333333333333  C 221.662613981763 88.9333333333333  205.763045684648 49.2242579187575  272.270516717325 49.5777777777777  C 320.348024316109 49.8333333333333  327.35035358822 63.2359480034091  356.279635258359 63.3777777777777  C 408.405775075988 63.6333333333333  403.851063829787 0.255555555555323  455.471124620061 0.511111111110995  C 507.091185410335 0.766666666666667  480.309570929724 66.3961702307715  539.480243161094 70.5333333333333  C 572.37537993921 72.8333333333333  585.786474164134 70.15  629.562310030395 72.0666666666667  C 673.338145896657 73.9833333333333  672.579027355623 112.7  723.693009118541 112.955555555555  C 774.806990881459 113.211111111111  763.840354156343 99.0463402763804  814.787234042553 99.1555555555555  C 869.838854021777 99.2735702025467  872.480243161094 113.977777777778  912.966565349544 114.488888888889  C 946.909868349617 114.917399022025  974.100911854103 88.1666666666667  995.963525835866 88.9333333333333  C 996.570820668693 89.3933333333333  998.240881458967 137.616666666667  998.240881458967 137.616666666667  Z " fill-rule="nonzero" fill="#facd91" stroke="none" transform="matrix(1 0 0 1 344 423 )" />
    <path d="M 1.82188449848025 137.616666666667  C 1.82188449848025 137.616666666667  0.303647416413378 68.8466666666667  0.303647416413378 69.1533333333334  C 15.0611079969221 68.8635520857354  55.1987571351525 67.4666666666667  86.0334346504559 67.4666666666667  C 138.918693009119 67.4666666666667  134.617021276596 88.9333333333333  178.139817629179 88.9333333333333  C 221.662613981763 88.9333333333333  205.763045684648 49.2242579187575  272.270516717325 49.5777777777777  C 320.348024316109 49.8333333333333  327.35035358822 63.2359480034091  356.279635258359 63.3777777777777  C 408.405775075988 63.6333333333333  403.851063829787 0.255555555555323  455.471124620061 0.511111111110995  C 507.091185410335 0.766666666666667  480.309570929724 66.3961702307715  539.480243161094 70.5333333333333  C 572.37537993921 72.8333333333333  585.786474164134 70.15  629.562310030395 72.0666666666667  C 673.338145896657 73.9833333333333  672.579027355623 112.7  723.693009118541 112.955555555555  C 774.806990881459 113.211111111111  763.840354156343 99.0463402763804  814.787234042553 99.1555555555555  C 869.838854021777 99.2735702025467  872.480243161094 113.977777777778  912.966565349544 114.488888888889  C 946.909868349617 114.917399022025  974.100911854103 88.1666666666667  995.963525835866 88.9333333333333  C 996.570820668693 89.3933333333333  998.240881458967 137.616666666667  998.240881458967 137.616666666667  " stroke-width="4" stroke="#f59a23" fill="none" transform="matrix(1 0 0 1 344 423 )" />
  </g>
</svg>