<?xml version="1.0" encoding="utf-8"?>
<svg version="1.1" xmlns:xlink="http://www.w3.org/1999/xlink" width="997px" height="118px" xmlns="http://www.w3.org/2000/svg">
  <g transform="matrix(1 0 0 1 -343 -423 )">
    <path d="M 0 68.4888888888893  C 0 68.4888888888893  33.1116429952409 67.4666666666667  85.9386154074954 67.4666666666667  C 138.76558781975 67.4666666666667  134.468657049375 88.9333333333333  177.943486020226 88.9333333333333  C 221.418314991077 88.9333333333333  205.536269939843 49.2242579187571  271.970441701368 49.5777777777773  C 319.994962076145 49.8333333333333  326.989573935099 63.2359480034094  355.886972040452 63.3777777777773  C 407.955662552052 63.6333333333333  403.405971148126 0.255555555554626  454.969140392624 0.511111111110646  C 477.513914716422 0.622846724178332  485.08740627648 13.2319139131466  491.411701101347 27.734425374797  C 499.551985949051 46.4012613737667  505.622673589778 68.2050467962474  538.885670731707 70.5333333333333  C 571.744553093397 72.8333333333333  585.140866671624 70.15  628.868456276026 72.0666666666667  C 672.596045880428 73.9833333333333  671.837763979774 112.7  722.895411957168 112.955555555556  C 773.953059934563 113.211111111111  762.998509768542 99.0463402763808  813.889240035693 99.155555555556  C 868.880186476178 99.2735702025467  871.518664485425 113.977777777777  911.960365853658 114.488888888889  C 952.402067221892 115  968.912976706112 86.2595041322319  993.854811124331 87.4  " stroke-width="2" stroke="#f59a23" fill="none" transform="matrix(1 0 0 1 344 424 )" />
  </g>
</svg>