<?xml version="1.0" encoding="utf-8"?>
<svg version="1.1" xmlns:xlink="http://www.w3.org/1999/xlink" width="9px" height="8px" xmlns="http://www.w3.org/2000/svg">
  <g transform="matrix(1 0 0 1 -802 -384 )">
    <path d="M 806.5 385  C 808.46 385  810 386.32  810 388  C 810 389.68  808.46 391  806.5 391  C 804.54 391  803 389.68  803 388  C 803 386.32  804.54 385  806.5 385  Z " fill-rule="nonzero" fill="#ffffff" stroke="none" />
    <path d="M 806.5 385  C 808.46 385  810 386.32  810 388  C 810 389.68  808.46 391  806.5 391  C 804.54 391  803 389.68  803 388  C 803 386.32  804.54 385  806.5 385  Z " stroke-width="2" stroke="#2db7f5" fill="none" />
  </g>
</svg>