<?xml version="1.0" encoding="utf-8"?>
<svg version="1.1" xmlns:xlink="http://www.w3.org/1999/xlink" width="21px" height="20px" preserveAspectRatio="xMinYMid meet" viewBox="282 361  21 18" xmlns="http://www.w3.org/2000/svg">
  <path d="M 294 370  L 265 370  A 5 5 0 0 0 260 375 L 260 1304  A 5 5 0 0 0 265 1309 L 274 1309  " stroke-width="2" stroke="#ff3399" fill="none" />
  <path d="M 292.5 366.5  A 3.5 3.5 0 0 0 289 370 A 3.5 3.5 0 0 0 292.5 373.5 A 3.5 3.5 0 0 0 296 370 A 3.5 3.5 0 0 0 292.5 366.5 Z M 268.892893218813 1304.70710678119  L 273.185786437627 1309  L 268.892893218813 1313.29289321881  L 270.307106781187 1314.70710678119  L 275.307106781187 1309.70710678119  L 276.014213562373 1309  L 275.307106781187 1308.29289321881  L 270.307106781187 1303.29289321881  L 268.892893218813 1304.70710678119  Z " fill-rule="nonzero" fill="#ff3399" stroke="none" />
</svg>