<?xml version="1.0" encoding="utf-8"?>
<svg version="1.1" xmlns:xlink="http://www.w3.org/1999/xlink" width="30px" height="30px" xmlns="http://www.w3.org/2000/svg">
  <g transform="matrix(1 0 0 1 -634 -681 )">
    <path d="M 24.7265625 12.71484375  C 24.9609375 12.48046875  25.078125 12.1875  25.078125 11.8359375  C 25.078125 11.4713541666667  24.9609375 11.171875  24.7265625 10.9375  L 22.94921875 9.17968749999998  C 22.7018229166667 8.9322916666667  22.4088541666667 8.80859375000002  22.0703125 8.80859375000002  C 21.7317708333333 8.80859375000002  21.4388020833333 8.9322916666667  21.19140625 9.17968749999998  L 16.9721459687923 13.388606456989  L 13.22265625 17.12890625  L 8.80859374999999 12.71484375  C 8.56119791666667 12.4674479166667  8.26822916666667 12.34375  7.92968749999999 12.34375  C 7.59114583333334 12.34375  7.29817708333334 12.4674479166667  7.05078124999999 12.71484375  L 5.2734375 14.47265625  C 5.0390625 14.70703125  4.921875 15.0065104166667  4.921875 15.37109375  C 4.921875 15.72265625  5.0390625 16.015625  5.2734375 16.25  L 12.34375 23.3203125  C 12.5911458333333 23.5677083333333  12.8841145833333 23.69140625  13.22265625 23.69140625  C 13.57421875 23.69140625  13.8736979166667 23.5677083333333  14.12109375 23.3203125  L 21.6646055640244 15.7768006859756  L 24.7265625 12.71484375  Z M 27.98828125 7.470703125  C 29.3294270833333 9.76888020833335  30 12.2786458333333  30 15  C 30 17.7213541666667  29.3294270833333 20.2311197916667  27.98828125 22.529296875  C 26.6471354166667 24.8274739583333  24.8274739583333 26.6471354166667  22.529296875 27.98828125  C 20.2311197916667 29.3294270833333  17.7213541666667 30  15 30  C 12.2786458333333 30  9.76888020833335 29.3294270833333  7.470703125 27.98828125  C 5.17252604166665 26.6471354166667  3.35286458333335 24.8274739583333  2.01171874999999 22.529296875  C 0.670572916666663 20.2311197916667  0 17.7213541666667  0 15  C 0 12.2786458333333  0.670572916666663 9.76888020833335  2.01171874999999 7.470703125  C 3.35286458333335 5.17252604166665  5.17252604166665 3.35286458333335  7.470703125 2.01171875000002  C 9.76888020833335 0.670572916666697  12.2786458333333 0  15 0  C 17.7213541666667 0  20.2311197916667 0.670572916666697  22.529296875 2.01171875000002  C 24.8274739583333 3.35286458333335  26.6471354166667 5.17252604166665  27.98828125 7.470703125  Z " fill-rule="nonzero" fill="#039d12" stroke="none" transform="matrix(1 0 0 1 634 681 )" />
  </g>
</svg>