<?xml version="1.0" encoding="utf-8"?>
<svg version="1.1" xmlns:xlink="http://www.w3.org/1999/xlink" width="25px" height="15px" xmlns="http://www.w3.org/2000/svg">
  <g transform="matrix(1 0 0 1 -1354 -188 )">
    <path d="M 24.7494989979959 1.49484536082474  C 24.9164996659986 1.66093928980524  25 1.85194730813288  25 2.06786941580754  C 25 2.28379152348225  24.9164996659986 2.47479954180983  24.7494989979959 2.64089347079039  L 13.0761523046092 14.2508591065292  C 12.9091516366066 14.4169530355097  12.7171008684036 14.5  12.5 14.5  C 12.2828991315964 14.5  12.0908483633934 14.4169530355097  11.9238476953908 14.2508591065292  L 0.250501002004057 2.64089347079039  C 0.0835003340014282 2.47479954180983  0 2.28379152348225  0 2.06786941580754  C 0 1.85194730813288  0.0835003340014282 1.66093928980524  0.250501002004057 1.49484536082474  L 1.50300601202412 0.249140893470781  C 1.67000668002675 0.0830469644902792  1.86205744822973 0  2.07915831663331 0  C 2.29625918503666 0  2.48830995323988 0.0830469644902792  2.65531062124251 0.249140893470781  L 12.5 10.0403780068729  L 22.3446893787575 0.249140893470781  C 22.5116900467601 0.0830469644902792  22.7037408149633 0  22.9208416833667 0  C 23.1379425517703 0  23.3299933199733 0.0830469644902792  23.4969939879759 0.249140893470781  L 24.7494989979959 1.49484536082474  Z " fill-rule="nonzero" fill="#999999" stroke="none" transform="matrix(1 0 0 1 1354 188 )" />
  </g>
</svg>