<?xml version="1.0" encoding="utf-8"?>
<svg version="1.1" xmlns:xlink="http://www.w3.org/1999/xlink" width="10px" height="6px" xmlns="http://www.w3.org/2000/svg">
  <defs>
    <mask fill="white" id="clip48">
      <path d="M 9.8997995991984 0.618556701030928  C 9.96659986639947 0.687285223367696  10 0.766323024054982  10 0.855670103092784  C 10 0.945017182130584  9.96659986639947 1.02405498281787  9.8997995991984 1.09278350515464  L 5.23046092184369 5.89690721649484  C 5.16366065464262 5.96563573883161  5.08684034736139 6  5 6  C 4.91315965263861 6  4.83633934535738 5.96563573883161  4.76953907815631 5.89690721649484  L 0.100200400801603 1.09278350515464  C 0.0334001336005345 1.02405498281787  0 0.945017182130584  0 0.855670103092784  C 0 0.766323024054982  0.0334001336005345 0.687285223367696  0.100200400801603 0.618556701030928  L 0.601202404809619 0.103092783505155  C 0.668002672010688 0.0343642611683841  0.744822979291917 0  0.831663326653307 0  C 0.918503674014696 0  0.995323981295925 0.0343642611683841  1.06212424849699 0.103092783505155  L 5 4.15463917525773  L 8.93787575150301 0.103092783505155  C 9.00467601870407 0.0343642611683841  9.0814963259853 0  9.16833667334669 0  C 9.25517702070808 0  9.33199732798931 0.0343642611683841  9.39879759519038 0.103092783505155  L 9.8997995991984 0.618556701030928  Z " fill-rule="evenodd" />
    </mask>
  </defs>
  <g transform="matrix(1 0 0 1 -626 -1288 )">
    <path d="M 9.8997995991984 0.618556701030928  C 9.96659986639947 0.687285223367696  10 0.766323024054982  10 0.855670103092784  C 10 0.945017182130584  9.96659986639947 1.02405498281787  9.8997995991984 1.09278350515464  L 5.23046092184369 5.89690721649484  C 5.16366065464262 5.96563573883161  5.08684034736139 6  5 6  C 4.91315965263861 6  4.83633934535738 5.96563573883161  4.76953907815631 5.89690721649484  L 0.100200400801603 1.09278350515464  C 0.0334001336005345 1.02405498281787  0 0.945017182130584  0 0.855670103092784  C 0 0.766323024054982  0.0334001336005345 0.687285223367696  0.100200400801603 0.618556701030928  L 0.601202404809619 0.103092783505155  C 0.668002672010688 0.0343642611683841  0.744822979291917 0  0.831663326653307 0  C 0.918503674014696 0  0.995323981295925 0.0343642611683841  1.06212424849699 0.103092783505155  L 5 4.15463917525773  L 8.93787575150301 0.103092783505155  C 9.00467601870407 0.0343642611683841  9.0814963259853 0  9.16833667334669 0  C 9.25517702070808 0  9.33199732798931 0.0343642611683841  9.39879759519038 0.103092783505155  L 9.8997995991984 0.618556701030928  Z " fill-rule="nonzero" fill="#666666" stroke="none" transform="matrix(1 0 0 1 626 1288 )" />
    <path d="M 9.8997995991984 0.618556701030928  C 9.96659986639947 0.687285223367696  10 0.766323024054982  10 0.855670103092784  C 10 0.945017182130584  9.96659986639947 1.02405498281787  9.8997995991984 1.09278350515464  L 5.23046092184369 5.89690721649484  C 5.16366065464262 5.96563573883161  5.08684034736139 6  5 6  C 4.91315965263861 6  4.83633934535738 5.96563573883161  4.76953907815631 5.89690721649484  L 0.100200400801603 1.09278350515464  C 0.0334001336005345 1.02405498281787  0 0.945017182130584  0 0.855670103092784  C 0 0.766323024054982  0.0334001336005345 0.687285223367696  0.100200400801603 0.618556701030928  L 0.601202404809619 0.103092783505155  C 0.668002672010688 0.0343642611683841  0.744822979291917 0  0.831663326653307 0  C 0.918503674014696 0  0.995323981295925 0.0343642611683841  1.06212424849699 0.103092783505155  L 5 4.15463917525773  L 8.93787575150301 0.103092783505155  C 9.00467601870407 0.0343642611683841  9.0814963259853 0  9.16833667334669 0  C 9.25517702070808 0  9.33199732798931 0.0343642611683841  9.39879759519038 0.103092783505155  L 9.8997995991984 0.618556701030928  Z " stroke-width="8" stroke="#797979" fill="none" transform="matrix(1 0 0 1 626 1288 )" mask="url(#clip48)" />
  </g>
</svg>