<?xml version="1.0" encoding="utf-8"?>
<svg version="1.1" xmlns:xlink="http://www.w3.org/1999/xlink" width="12px" height="12px" viewBox="546 1382  12 12" xmlns="http://www.w3.org/2000/svg">
  <path d="M 552 1382  C 555.36 1382  558 1384.64  558 1388  C 558 1391.36  555.36 1394  552 1394  C 548.64 1394  546 1391.36  546 1388  C 546 1384.64  548.64 1382  552 1382  Z " fill-rule="nonzero" fill="#ffffff" stroke="none" />
  <path d="M 552 1382.5  C 555.08 1382.5  557.5 1384.92  557.5 1388  C 557.5 1391.08  555.08 1393.5  552 1393.5  C 548.92 1393.5  546.5 1391.08  546.5 1388  C 546.5 1384.92  548.92 1382.5  552 1382.5  Z " stroke-width="1" stroke="#797979" fill="none" />
  <path d="M 552 1391  C 550.32 1391  549 1389.68  549 1388  C 549 1386.32  550.32 1385  552 1385  C 553.68 1385  555 1386.32  555 1388  C 555 1389.68  553.68 1391  552 1391  " fill-rule="nonzero" fill="#797979" stroke="none" />
</svg>