<?xml version="1.0" encoding="utf-8"?>
<svg version="1.1" xmlns:xlink="http://www.w3.org/1999/xlink" width="12px" height="12px" viewBox="425 1173  12 12" xmlns="http://www.w3.org/2000/svg">
  <path d="M 431 1173  C 434.36 1173  437 1175.64  437 1179  C 437 1182.36  434.36 1185  431 1185  C 427.64 1185  425 1182.36  425 1179  C 425 1175.64  427.64 1173  431 1173  Z " fill-rule="nonzero" fill="#ffffff" stroke="none" />
  <path d="M 431 1173.5  C 434.08 1173.5  436.5 1175.92  436.5 1179  C 436.5 1182.08  434.08 1184.5  431 1184.5  C 427.92 1184.5  425.5 1182.08  425.5 1179  C 425.5 1175.92  427.92 1173.5  431 1173.5  Z " stroke-width="1" stroke="#797979" fill="none" />
  <path d="M 431 1182  C 429.32 1182  428 1180.68  428 1179  C 428 1177.32  429.32 1176  431 1176  C 432.68 1176  434 1177.32  434 1179  C 434 1180.68  432.68 1182  431 1182  " fill-rule="nonzero" fill="#797979" stroke="none" />
</svg>