<?xml version="1.0" encoding="utf-8"?>
<svg version="1.1" xmlns:xlink="http://www.w3.org/1999/xlink" width="270px" height="28px" xmlns="http://www.w3.org/2000/svg">
  <defs>
    <mask fill="white" id="clip49">
      <path d="M 0 24.5  L 0 3.5  C 0 1.53999999999996  1.75999999999999 0  4 0  L 23.439024390244 0  L 28.3170731707318 0  L 266 0  C 268.24 0  270 1.53999999999996  270 3.5  L 270 24.5  C 270 26.46  268.24 28  266 28  L 28.3170731707318 28  L 4 28  C 1.75999999999999 28  0 26.46  0 24.5  Z " fill-rule="evenodd" />
    </mask>
  </defs>
  <g transform="matrix(1 0 0 1 -879 -1114 )">
    <path d="M 0 24.5  L 0 3.5  C 0 1.53999999999996  1.75999999999999 0  4 0  L 23.439024390244 0  L 28.3170731707318 0  L 266 0  C 268.24 0  270 1.53999999999996  270 3.5  L 270 24.5  C 270 26.46  268.24 28  266 28  L 28.3170731707318 28  L 4 28  C 1.75999999999999 28  0 26.46  0 24.5  Z " fill-rule="nonzero" fill="#ffffff" stroke="none" transform="matrix(1 0 0 1 879 1114 )" />
    <path d="M 0 24.5  L 0 3.5  C 0 1.53999999999996  1.75999999999999 0  4 0  L 23.439024390244 0  L 28.3170731707318 0  L 266 0  C 268.24 0  270 1.53999999999996  270 3.5  L 270 24.5  C 270 26.46  268.24 28  266 28  L 28.3170731707318 28  L 4 28  C 1.75999999999999 28  0 26.46  0 24.5  Z " stroke-width="2" stroke="#108ee9" fill="none" transform="matrix(1 0 0 1 879 1114 )" mask="url(#clip49)" />
  </g>
</svg>