<?xml version="1.0" encoding="utf-8"?>
<svg version="1.1" xmlns:xlink="http://www.w3.org/1999/xlink" width="20px" height="20px" preserveAspectRatio="xMinYMid meet" viewBox="1201 1563  20 18" xmlns="http://www.w3.org/2000/svg">
  <path d="M 1152 1385  L 1215 1385  A 5 5 0 0 1 1220 1390 L 1220 1567  A 5 5 0 0 1 1215 1572 L 1211 1572  " stroke-width="2" stroke="#ff3399" fill="none" />
  <path d="M 1153.5 1381.5  A 3.5 3.5 0 0 0 1150 1385 A 3.5 3.5 0 0 0 1153.5 1388.5 A 3.5 3.5 0 0 0 1157 1385 A 3.5 3.5 0 0 0 1153.5 1381.5 Z M 1216.10710678119 1576.29289321881  L 1211.81421356237 1572  L 1216.10710678119 1567.70710678119  L 1214.69289321881 1566.29289321881  L 1209.69289321881 1571.29289321881  L 1208.98578643763 1572  L 1209.69289321881 1572.70710678119  L 1214.69289321881 1577.70710678119  L 1216.10710678119 1576.29289321881  Z " fill-rule="nonzero" fill="#ff3399" stroke="none" />
</svg>