<?xml version="1.0" encoding="utf-8"?>
<svg version="1.1" xmlns:xlink="http://www.w3.org/1999/xlink" width="422px" height="10px" preserveAspectRatio="xMinYMid meet" viewBox="1096 746  422 8" xmlns="http://www.w3.org/2000/svg">
  <path d="M 1101 765  L 1101 755  A 5 5 0 0 1 1106 750 L 1508 750  A 5 5 0 0 1 1513 755 L 1513 766  " stroke-width="2" stroke="#ff3399" fill="none" />
  <path d="M 1101 760  A 3.5 3.5 0 0 0 1097.5 763.5 A 3.5 3.5 0 0 0 1101 767 A 3.5 3.5 0 0 0 1104.5 763.5 A 3.5 3.5 0 0 0 1101 760 Z M 1517.29289321881 760.892893218813  L 1513 765.185786437627  L 1508.70710678119 760.892893218813  L 1507.29289321881 762.307106781187  L 1512.29289321881 767.307106781187  L 1513 768.014213562373  L 1513.70710678119 767.307106781187  L 1518.70710678119 762.307106781187  L 1517.29289321881 760.892893218813  Z " fill-rule="nonzero" fill="#ff3399" stroke="none" />
</svg>