<?xml version="1.0" encoding="utf-8"?>
<svg version="1.1" xmlns:xlink="http://www.w3.org/1999/xlink" width="20px" height="21px" preserveAspectRatio="xMidYMin meet" viewBox="1233 818  18 21" xmlns="http://www.w3.org/2000/svg">
  <path d="M 1242 827  L 1242 851  A 5 5 0 0 0 1247 856 L 1412 856  A 5 5 0 0 1 1417 861 L 1417 1267  A 5 5 0 0 0 1422 1272 L 1514.01122217364 1281.78842789081  " stroke-width="2" stroke="#ff3399" fill="none" />
  <path d="M 1242 825  A 3.5 3.5 0 0 0 1238.5 828.5 A 3.5 3.5 0 0 0 1242 832 A 3.5 3.5 0 0 0 1245.5 828.5 A 3.5 3.5 0 0 0 1242 825 Z M 1509.38690004842 1276.97936179179  L 1513.20157723426 1281.70229545045  L 1508.4786435756 1285.51697263629  L 1509.73531778977 1287.0728549967  L 1515.23619262864 1282.62984070377  L 1516.01413380884 1282.00150359669  L 1515.38579670175 1281.22356241648  L 1510.94278240882 1275.72268757762  L 1509.38690004842 1276.97936179179  Z " fill-rule="nonzero" fill="#ff3399" stroke="none" />
</svg>