<?xml version="1.0" encoding="utf-8"?>
<svg version="1.1" xmlns:xlink="http://www.w3.org/1999/xlink" width="20px" height="20px" preserveAspectRatio="xMinYMid meet" viewBox="864 964  20 18" xmlns="http://www.w3.org/2000/svg">
  <path d="M 1219 554  L 1188 554  A 5 5 0 0 0 1183 559 L 1183 960  A 5 5 0 0 1 1178 965 L 874.998925886066 974.934461446358  " stroke-width="2" stroke="#ff3399" fill="none" />
  <path d="M 1217.5 550.5  A 3.5 3.5 0 0 0 1214 554 A 3.5 3.5 0 0 0 1217.5 557.5 A 3.5 3.5 0 0 0 1221 554 A 3.5 3.5 0 0 0 1217.5 550.5 Z M 880.243964866225 979.057692941095  L 875.812702169373 974.907780256742  L 879.962614853727 970.47651755989  L 878.502818048891 969.109406266472  L 873.669349717828 974.270567365742  L 872.98579407112 975.00046576816  L 873.715692473538 975.684021414869  L 878.876853572808 980.517489745931  L 880.243964866225 979.057692941095  Z " fill-rule="nonzero" fill="#ff3399" stroke="none" />
</svg>