<?xml version="1.0" encoding="utf-8"?>
<svg version="1.1" xmlns:xlink="http://www.w3.org/1999/xlink" width="20px" height="20px" preserveAspectRatio="xMinYMid meet" viewBox="646 1536  20 18" xmlns="http://www.w3.org/2000/svg">
  <path d="M 666 1231  L 685 1231  A 5 5 0 0 1 690 1236 L 690 1540  A 5 5 0 0 1 685 1545 L 656 1545  " stroke-width="2" stroke="#ff3399" fill="none" />
  <path d="M 667.5 1227.5  A 3.5 3.5 0 0 0 664 1231 A 3.5 3.5 0 0 0 667.5 1234.5 A 3.5 3.5 0 0 0 671 1231 A 3.5 3.5 0 0 0 667.5 1227.5 Z M 661.107106781187 1549.29289321881  L 656.814213562373 1545  L 661.107106781187 1540.70710678119  L 659.692893218813 1539.29289321881  L 654.692893218813 1544.29289321881  L 653.985786437627 1545  L 654.692893218813 1545.70710678119  L 659.692893218813 1550.70710678119  L 661.107106781187 1549.29289321881  Z " fill-rule="nonzero" fill="#ff3399" stroke="none" />
</svg>