<?xml version="1.0" encoding="utf-8"?>
<svg version="1.1" xmlns:xlink="http://www.w3.org/1999/xlink" width="16px" height="16px" xmlns="http://www.w3.org/2000/svg">
  <defs>
    <mask fill="white" id="clip64">
      <path d="M 3.66666666666667 10.75  L 4.20833333333333 10.2083333333333  L 5.79166666666667 11.7916666666667  L 5.25 12.3333333333333  L 4.66666666666667 12.3333333333333  L 4.66666666666667 11.3333333333333  L 3.66666666666667 11.3333333333333  L 3.66666666666667 10.75  Z M 8.20833333333333 6.17708333333333  C 8.32638888888889 6.05902777777778  8.43055555555556 6.04861111111111  8.52083333333333 6.14583333333333  C 8.61805555555556 6.23611111111111  8.60763888888889 6.34027777777778  8.48958333333333 6.45833333333333  L 5.45833333333333 9.48958333333333  C 5.34027777777778 9.60763888888889  5.23611111111111 9.61805555555555  5.14583333333333 9.52083333333333  C 5.04861111111111 9.43055555555555  5.05902777777778 9.32638888888889  5.17708333333333 9.20833333333333  L 8.20833333333333 6.17708333333333  Z M 2.66666666666667 13.3333333333333  L 5.66666666666667 13.3333333333333  L 11.3333333333333 7.66666666666667  L 8.33333333333333 4.66666666666667  L 2.66666666666667 10.3333333333333  L 2.66666666666667 13.3333333333333  Z M 9 4  L 12 7  L 12.9583333333333 6.04166666666667  C 13.1527777777778 5.84722222222222  13.25 5.61111111111111  13.25 5.33333333333333  C 13.25 5.05555555555556  13.1527777777778 4.81944444444444  12.9583333333333 4.625  L 11.375 3.04166666666667  C 11.1805555555556 2.84722222222222  10.9444444444444 2.75  10.6666666666667 2.75  C 10.3888888888889 2.75  10.1527777777778 2.84722222222222  9.95833333333333 3.04166666666667  L 9 4  Z M 15.1197916666667 0.880208333333334  C 15.7065972222222 1.46701388888889  16 2.17361111111111  16 3  L 16 13  C 16 13.8263888888889  15.7065972222222 14.5329861111111  15.1197916666667 15.1197916666667  C 14.5329861111111 15.7065972222222  13.8263888888889 16  13 16  L 3 16  C 2.17361111111111 16  1.46701388888889 15.7065972222222  0.880208333333333 15.1197916666667  C 0.293402777777778 14.5329861111111  0 13.8263888888889  0 13  L 0 3  C 0 2.17361111111111  0.293402777777778 1.46701388888889  0.880208333333333 0.880208333333334  C 1.46701388888889 0.293402777777777  2.17361111111111 0  3 0  L 13 0  C 13.8263888888889 0  14.5329861111111 0.293402777777777  15.1197916666667 0.880208333333334  Z " fill-rule="evenodd" />
    </mask>
  </defs>
  <g transform="matrix(1 0 0 1 -22 -54 )">
    <path d="M 3.66666666666667 10.75  L 4.20833333333333 10.2083333333333  L 5.79166666666667 11.7916666666667  L 5.25 12.3333333333333  L 4.66666666666667 12.3333333333333  L 4.66666666666667 11.3333333333333  L 3.66666666666667 11.3333333333333  L 3.66666666666667 10.75  Z M 8.20833333333333 6.17708333333333  C 8.32638888888889 6.05902777777778  8.43055555555556 6.04861111111111  8.52083333333333 6.14583333333333  C 8.61805555555556 6.23611111111111  8.60763888888889 6.34027777777778  8.48958333333333 6.45833333333333  L 5.45833333333333 9.48958333333333  C 5.34027777777778 9.60763888888889  5.23611111111111 9.61805555555555  5.14583333333333 9.52083333333333  C 5.04861111111111 9.43055555555555  5.05902777777778 9.32638888888889  5.17708333333333 9.20833333333333  L 8.20833333333333 6.17708333333333  Z M 2.66666666666667 13.3333333333333  L 5.66666666666667 13.3333333333333  L 11.3333333333333 7.66666666666667  L 8.33333333333333 4.66666666666667  L 2.66666666666667 10.3333333333333  L 2.66666666666667 13.3333333333333  Z M 9 4  L 12 7  L 12.9583333333333 6.04166666666667  C 13.1527777777778 5.84722222222222  13.25 5.61111111111111  13.25 5.33333333333333  C 13.25 5.05555555555556  13.1527777777778 4.81944444444444  12.9583333333333 4.625  L 11.375 3.04166666666667  C 11.1805555555556 2.84722222222222  10.9444444444444 2.75  10.6666666666667 2.75  C 10.3888888888889 2.75  10.1527777777778 2.84722222222222  9.95833333333333 3.04166666666667  L 9 4  Z M 15.1197916666667 0.880208333333334  C 15.7065972222222 1.46701388888889  16 2.17361111111111  16 3  L 16 13  C 16 13.8263888888889  15.7065972222222 14.5329861111111  15.1197916666667 15.1197916666667  C 14.5329861111111 15.7065972222222  13.8263888888889 16  13 16  L 3 16  C 2.17361111111111 16  1.46701388888889 15.7065972222222  0.880208333333333 15.1197916666667  C 0.293402777777778 14.5329861111111  0 13.8263888888889  0 13  L 0 3  C 0 2.17361111111111  0.293402777777778 1.46701388888889  0.880208333333333 0.880208333333334  C 1.46701388888889 0.293402777777777  2.17361111111111 0  3 0  L 13 0  C 13.8263888888889 0  14.5329861111111 0.293402777777777  15.1197916666667 0.880208333333334  Z " fill-rule="nonzero" fill="#000099" stroke="none" transform="matrix(1 0 0 1 22 54 )" />
    <path d="M 3.66666666666667 10.75  L 4.20833333333333 10.2083333333333  L 5.79166666666667 11.7916666666667  L 5.25 12.3333333333333  L 4.66666666666667 12.3333333333333  L 4.66666666666667 11.3333333333333  L 3.66666666666667 11.3333333333333  L 3.66666666666667 10.75  Z " stroke-width="8" stroke="#797979" fill="none" transform="matrix(1 0 0 1 22 54 )" mask="url(#clip64)" />
    <path d="M 8.20833333333333 6.17708333333333  C 8.32638888888889 6.05902777777778  8.43055555555556 6.04861111111111  8.52083333333333 6.14583333333333  C 8.61805555555556 6.23611111111111  8.60763888888889 6.34027777777778  8.48958333333333 6.45833333333333  L 5.45833333333333 9.48958333333333  C 5.34027777777778 9.60763888888889  5.23611111111111 9.61805555555555  5.14583333333333 9.52083333333333  C 5.04861111111111 9.43055555555555  5.05902777777778 9.32638888888889  5.17708333333333 9.20833333333333  L 8.20833333333333 6.17708333333333  Z " stroke-width="8" stroke="#797979" fill="none" transform="matrix(1 0 0 1 22 54 )" mask="url(#clip64)" />
    <path d="M 2.66666666666667 13.3333333333333  L 5.66666666666667 13.3333333333333  L 11.3333333333333 7.66666666666667  L 8.33333333333333 4.66666666666667  L 2.66666666666667 10.3333333333333  L 2.66666666666667 13.3333333333333  Z " stroke-width="8" stroke="#797979" fill="none" transform="matrix(1 0 0 1 22 54 )" mask="url(#clip64)" />
    <path d="M 9 4  L 12 7  L 12.9583333333333 6.04166666666667  C 13.1527777777778 5.84722222222222  13.25 5.61111111111111  13.25 5.33333333333333  C 13.25 5.05555555555556  13.1527777777778 4.81944444444444  12.9583333333333 4.625  L 11.375 3.04166666666667  C 11.1805555555556 2.84722222222222  10.9444444444444 2.75  10.6666666666667 2.75  C 10.3888888888889 2.75  10.1527777777778 2.84722222222222  9.95833333333333 3.04166666666667  L 9 4  Z " stroke-width="8" stroke="#797979" fill="none" transform="matrix(1 0 0 1 22 54 )" mask="url(#clip64)" />
    <path d="M 15.1197916666667 0.880208333333334  C 15.7065972222222 1.46701388888889  16 2.17361111111111  16 3  L 16 13  C 16 13.8263888888889  15.7065972222222 14.5329861111111  15.1197916666667 15.1197916666667  C 14.5329861111111 15.7065972222222  13.8263888888889 16  13 16  L 3 16  C 2.17361111111111 16  1.46701388888889 15.7065972222222  0.880208333333333 15.1197916666667  C 0.293402777777778 14.5329861111111  0 13.8263888888889  0 13  L 0 3  C 0 2.17361111111111  0.293402777777778 1.46701388888889  0.880208333333333 0.880208333333334  C 1.46701388888889 0.293402777777777  2.17361111111111 0  3 0  L 13 0  C 13.8263888888889 0  14.5329861111111 0.293402777777777  15.1197916666667 0.880208333333334  Z " stroke-width="8" stroke="#797979" fill="none" transform="matrix(1 0 0 1 22 54 )" mask="url(#clip64)" />
  </g>
</svg>