<?xml version="1.0" encoding="utf-8"?>
<svg version="1.1" xmlns:xlink="http://www.w3.org/1999/xlink" width="15px" height="18px" xmlns="http://www.w3.org/2000/svg">
  <defs>
    <mask fill="white" id="clip63">
      <path d="M 4.16666666666667 5.72727272727273  L 4.16666666666667 8.18181818181818  L 10.8333333333333 8.18181818181818  L 10.8333333333333 5.72727272727273  C 10.8333333333333 4.82386363636364  10.5078125 4.05255681818182  9.85677083333333 3.41335227272727  C 9.20572916666667 2.77414772727273  8.42013888888889 2.45454545454545  7.5 2.45454545454545  C 6.57986111111111 2.45454545454545  5.79427083333333 2.77414772727273  5.14322916666667 3.41335227272727  C 4.4921875 4.05255681818182  4.16666666666667 4.82386363636364  4.16666666666667 5.72727272727273  Z M 14.6354166666667 8.53977272727273  C 14.8784722222222 8.77840909090909  15 9.06818181818182  15 9.40909090909091  L 15 16.7727272727273  C 15 17.1136363636364  14.8784722222222 17.4034090909091  14.6354166666667 17.6420454545455  C 14.3923611111111 17.8806818181818  14.0972222222222 18  13.75 18  L 1.25 18  C 0.902777777777778 18  0.607638888888889 17.8806818181818  0.364583333333333 17.6420454545455  C 0.121527777777778 17.4034090909091  0 17.1136363636364  0 16.7727272727273  L 0 9.40909090909091  C 0 9.06818181818182  0.121527777777778 8.77840909090909  0.364583333333333 8.53977272727273  C 0.607638888888889 8.30113636363636  0.902777777777778 8.18181818181818  1.25 8.18181818181818  L 1.66666666666667 8.18181818181818  L 1.66666666666667 5.72727272727273  C 1.66666666666667 4.15909090909091  2.23958333333333 2.8125  3.38541666666667 1.6875  C 4.53125 0.5625  5.90277777777778 0  7.5 0  C 9.09722222222222 0  10.46875 0.5625  11.6145833333333 1.6875  C 12.7604166666667 2.8125  13.3333333333333 4.15909090909091  13.3333333333333 5.72727272727273  L 13.3333333333333 8.18181818181818  L 13.75 8.18181818181818  C 14.0972222222222 8.18181818181818  14.3923611111111 8.30113636363636  14.6354166666667 8.53977272727273  Z " fill-rule="evenodd" />
    </mask>
  </defs>
  <g transform="matrix(1 0 0 1 -22 -88 )">
    <path d="M 4.16666666666667 5.72727272727273  L 4.16666666666667 8.18181818181818  L 10.8333333333333 8.18181818181818  L 10.8333333333333 5.72727272727273  C 10.8333333333333 4.82386363636364  10.5078125 4.05255681818182  9.85677083333333 3.41335227272727  C 9.20572916666667 2.77414772727273  8.42013888888889 2.45454545454545  7.5 2.45454545454545  C 6.57986111111111 2.45454545454545  5.79427083333333 2.77414772727273  5.14322916666667 3.41335227272727  C 4.4921875 4.05255681818182  4.16666666666667 4.82386363636364  4.16666666666667 5.72727272727273  Z M 14.6354166666667 8.53977272727273  C 14.8784722222222 8.77840909090909  15 9.06818181818182  15 9.40909090909091  L 15 16.7727272727273  C 15 17.1136363636364  14.8784722222222 17.4034090909091  14.6354166666667 17.6420454545455  C 14.3923611111111 17.8806818181818  14.0972222222222 18  13.75 18  L 1.25 18  C 0.902777777777778 18  0.607638888888889 17.8806818181818  0.364583333333333 17.6420454545455  C 0.121527777777778 17.4034090909091  0 17.1136363636364  0 16.7727272727273  L 0 9.40909090909091  C 0 9.06818181818182  0.121527777777778 8.77840909090909  0.364583333333333 8.53977272727273  C 0.607638888888889 8.30113636363636  0.902777777777778 8.18181818181818  1.25 8.18181818181818  L 1.66666666666667 8.18181818181818  L 1.66666666666667 5.72727272727273  C 1.66666666666667 4.15909090909091  2.23958333333333 2.8125  3.38541666666667 1.6875  C 4.53125 0.5625  5.90277777777778 0  7.5 0  C 9.09722222222222 0  10.46875 0.5625  11.6145833333333 1.6875  C 12.7604166666667 2.8125  13.3333333333333 4.15909090909091  13.3333333333333 5.72727272727273  L 13.3333333333333 8.18181818181818  L 13.75 8.18181818181818  C 14.0972222222222 8.18181818181818  14.3923611111111 8.30113636363636  14.6354166666667 8.53977272727273  Z " fill-rule="nonzero" fill="#000099" stroke="none" transform="matrix(1 0 0 1 22 88 )" />
    <path d="M 4.16666666666667 5.72727272727273  L 4.16666666666667 8.18181818181818  L 10.8333333333333 8.18181818181818  L 10.8333333333333 5.72727272727273  C 10.8333333333333 4.82386363636364  10.5078125 4.05255681818182  9.85677083333333 3.41335227272727  C 9.20572916666667 2.77414772727273  8.42013888888889 2.45454545454545  7.5 2.45454545454545  C 6.57986111111111 2.45454545454545  5.79427083333333 2.77414772727273  5.14322916666667 3.41335227272727  C 4.4921875 4.05255681818182  4.16666666666667 4.82386363636364  4.16666666666667 5.72727272727273  Z " stroke-width="8" stroke="#797979" fill="none" transform="matrix(1 0 0 1 22 88 )" mask="url(#clip63)" />
    <path d="M 14.6354166666667 8.53977272727273  C 14.8784722222222 8.77840909090909  15 9.06818181818182  15 9.40909090909091  L 15 16.7727272727273  C 15 17.1136363636364  14.8784722222222 17.4034090909091  14.6354166666667 17.6420454545455  C 14.3923611111111 17.8806818181818  14.0972222222222 18  13.75 18  L 1.25 18  C 0.902777777777778 18  0.607638888888889 17.8806818181818  0.364583333333333 17.6420454545455  C 0.121527777777778 17.4034090909091  0 17.1136363636364  0 16.7727272727273  L 0 9.40909090909091  C 0 9.06818181818182  0.121527777777778 8.77840909090909  0.364583333333333 8.53977272727273  C 0.607638888888889 8.30113636363636  0.902777777777778 8.18181818181818  1.25 8.18181818181818  L 1.66666666666667 8.18181818181818  L 1.66666666666667 5.72727272727273  C 1.66666666666667 4.15909090909091  2.23958333333333 2.8125  3.38541666666667 1.6875  C 4.53125 0.5625  5.90277777777778 0  7.5 0  C 9.09722222222222 0  10.46875 0.5625  11.6145833333333 1.6875  C 12.7604166666667 2.8125  13.3333333333333 4.15909090909091  13.3333333333333 5.72727272727273  L 13.3333333333333 8.18181818181818  L 13.75 8.18181818181818  C 14.0972222222222 8.18181818181818  14.3923611111111 8.30113636363636  14.6354166666667 8.53977272727273  Z " stroke-width="8" stroke="#797979" fill="none" transform="matrix(1 0 0 1 22 88 )" mask="url(#clip63)" />
  </g>
</svg>