<?xml version="1.0" encoding="utf-8"?>
<svg version="1.1" xmlns:xlink="http://www.w3.org/1999/xlink" width="272px" height="213px" xmlns="http://www.w3.org/2000/svg">
  <defs>
    <mask fill="white" id="clip67">
      <path d="M 5.55066079295154 20  C 2.48511548552071 20  0 22.238576250846  0 25  L 0 188  C 0 190.761423749154  2.48511548552071 193  5.55066079295154 193  L 246.449339207048 193  C 249.514884514479 193  252 190.761423749154  252 188  L 252 25  C 252 22.238576250846  249.514884514479 20  246.449339207048 20  L 83.7039647577092 20  L 67.0519823788546 0  L 50.4 20  L 5.55066079295154 20  Z " fill-rule="evenodd" />
    </mask>
    <filter x="-10px" y="-10px" width="272px" height="213px" filterUnits="userSpaceOnUse" id="filter68">
      <feOffset dx="0" dy="0" in="SourceAlpha" result="shadowOffsetInner" />
      <feGaussianBlur stdDeviation="5" in="shadowOffsetInner" result="shadowGaussian" />
      <feComposite in2="shadowGaussian" operator="atop" in="SourceAlpha" result="shadowComposite" />
      <feColorMatrix type="matrix" values="0 0 0 0 0  0 0 0 0 0  0 0 0 0 0  0 0 0 0.349019607843137 0  " in="shadowComposite" />
    </filter>
    <g id="widget69">
      <path d="M 5.55066079295154 20  C 2.48511548552071 20  0 22.238576250846  0 25  L 0 188  C 0 190.761423749154  2.48511548552071 193  5.55066079295154 193  L 246.449339207048 193  C 249.514884514479 193  252 190.761423749154  252 188  L 252 25  C 252 22.238576250846  249.514884514479 20  246.449339207048 20  L 83.7039647577092 20  L 67.0519823788546 0  L 50.4 20  L 5.55066079295154 20  Z " fill-rule="nonzero" fill="#ffffff" stroke="none" />
      <path d="M 5.55066079295154 20  C 2.48511548552071 20  0 22.238576250846  0 25  L 0 188  C 0 190.761423749154  2.48511548552071 193  5.55066079295154 193  L 246.449339207048 193  C 249.514884514479 193  252 190.761423749154  252 188  L 252 25  C 252 22.238576250846  249.514884514479 20  246.449339207048 20  L 83.7039647577092 20  L 67.0519823788546 0  L 50.4 20  L 5.55066079295154 20  Z " stroke-width="2" stroke="#797979" fill="none" mask="url(#clip67)" />
    </g>
  </defs>
  <g transform="matrix(1 0 0 1 10 10 )">
    <use xlink:href="#widget69" filter="url(#filter68)" />
    <use xlink:href="#widget69" />
  </g>
</svg>