<?xml version="1.0" encoding="utf-8"?>
<svg version="1.1" xmlns:xlink="http://www.w3.org/1999/xlink" width="15px" height="17px" xmlns="http://www.w3.org/2000/svg">
  <defs>
    <mask fill="white" id="clip58">
      <path d="M 14.9627130681818 12.9879557291667  C 14.9875710227273 13.3605685763889  15 13.7424045138889  15 14.1334635416667  C 15 15.0188802083333  14.7407670454545 15.7179904513889  14.2223011363636 16.2307942708333  C 13.7038352272727 16.7435980902778  13.0149147727273 17  12.1555397727273 17  L 2.84446022727273 17  C 1.98508522727273 17  1.29616477272727 16.7435980902778  0.777698863636364 16.2307942708333  C 0.259232954545455 15.7179904513889  0 15.0188802083333  0 14.1334635416667  C 0 13.7424045138889  0.0124289772727273 13.3605685763889  0.0372869318181818 12.9879557291667  C 0.0621448863636364 12.6153428819444  0.111860795454545 12.2132161458333  0.186434659090909 11.7815755208333  C 0.261008522727273 11.3499348958333  0.355113636363636 10.9496527777778  0.46875 10.5807291666667  C 0.582386363636364 10.2118055555556  0.735085227272727 9.85210503472222  0.926846590909091 9.50162760416667  C 1.11860795454545 9.15115017361111  1.33877840909091 8.85232204861111  1.58735795454545 8.60514322916667  C 1.8359375 8.35796440972222  2.13955965909091 8.16059027777778  2.49822443181818 8.01302083333333  C 2.85688920454545 7.86545138888889  3.25284090909091 7.79166666666667  3.68607954545455 7.79166666666667  C 3.75 7.79166666666667  3.89914772727273 7.87098524305556  4.13352272727273 8.02962239583333  C 4.36789772727273 8.18825954861111  4.63245738636364 8.36534288194444  4.92720170454546 8.56087239583333  C 5.22194602272727 8.75640190972222  5.60546875 8.93348524305556  6.07776988636364 9.09212239583333  C 6.55007102272727 9.25075954861111  7.02414772727273 9.330078125  7.5 9.330078125  C 7.97585227272727 9.330078125  8.44992897727273 9.25075954861111  8.92223011363636 9.09212239583333  C 9.39453125 8.93348524305556  9.77805397727273 8.75640190972222  10.0727982954545 8.56087239583333  C 10.3675426136364 8.36534288194444  10.6321022727273 8.18825954861111  10.8664772727273 8.02962239583333  C 11.1008522727273 7.87098524305556  11.25 7.79166666666667  11.3139204545455 7.79166666666667  C 11.7471590909091 7.79166666666667  12.1431107954545 7.86545138888889  12.5017755681818 8.01302083333333  C 12.8604403409091 8.16059027777778  13.1640625 8.35796440972222  13.4126420454545 8.60514322916667  C 13.6612215909091 8.85232204861111  13.8813920454545 9.15115017361111  14.0731534090909 9.50162760416667  C 14.2649147727273 9.85210503472222  14.4176136363636 10.2118055555556  14.53125 10.5807291666667  C 14.6448863636364 10.9496527777778  14.7389914772727 11.3499348958333  14.8135653409091 11.7815755208333  C 14.8881392045455 12.2132161458333  14.9378551136364 12.6153428819444  14.9627130681818 12.9879557291667  Z M 10.3924005681818 1.2451171875  C 11.19140625 2.0751953125  11.5909090909091 3.07682291666667  11.5909090909091 4.25  C 11.5909090909091 5.42317708333333  11.19140625 6.4248046875  10.3924005681818 7.2548828125  C 9.59339488636364 8.0849609375  8.62926136363636 8.5  7.5 8.5  C 6.37073863636364 8.5  5.40660511363636 8.0849609375  4.60759943181818 7.2548828125  C 3.80859375 6.4248046875  3.40909090909091 5.42317708333333  3.40909090909091 4.25  C 3.40909090909091 3.07682291666667  3.80859375 2.0751953125  4.60759943181818 1.2451171875  C 5.40660511363636 0.4150390625  6.37073863636364 0  7.5 0  C 8.62926136363636 0  9.59339488636364 0.4150390625  10.3924005681818 1.2451171875  Z " fill-rule="evenodd" />
    </mask>
  </defs>
  <g transform="matrix(1 0 0 1 -1346 -47 )">
    <path d="M 14.9627130681818 12.9879557291667  C 14.9875710227273 13.3605685763889  15 13.7424045138889  15 14.1334635416667  C 15 15.0188802083333  14.7407670454545 15.7179904513889  14.2223011363636 16.2307942708333  C 13.7038352272727 16.7435980902778  13.0149147727273 17  12.1555397727273 17  L 2.84446022727273 17  C 1.98508522727273 17  1.29616477272727 16.7435980902778  0.777698863636364 16.2307942708333  C 0.259232954545455 15.7179904513889  0 15.0188802083333  0 14.1334635416667  C 0 13.7424045138889  0.0124289772727273 13.3605685763889  0.0372869318181818 12.9879557291667  C 0.0621448863636364 12.6153428819444  0.111860795454545 12.2132161458333  0.186434659090909 11.7815755208333  C 0.261008522727273 11.3499348958333  0.355113636363636 10.9496527777778  0.46875 10.5807291666667  C 0.582386363636364 10.2118055555556  0.735085227272727 9.85210503472222  0.926846590909091 9.50162760416667  C 1.11860795454545 9.15115017361111  1.33877840909091 8.85232204861111  1.58735795454545 8.60514322916667  C 1.8359375 8.35796440972222  2.13955965909091 8.16059027777778  2.49822443181818 8.01302083333333  C 2.85688920454545 7.86545138888889  3.25284090909091 7.79166666666667  3.68607954545455 7.79166666666667  C 3.75 7.79166666666667  3.89914772727273 7.87098524305556  4.13352272727273 8.02962239583333  C 4.36789772727273 8.18825954861111  4.63245738636364 8.36534288194444  4.92720170454546 8.56087239583333  C 5.22194602272727 8.75640190972222  5.60546875 8.93348524305556  6.07776988636364 9.09212239583333  C 6.55007102272727 9.25075954861111  7.02414772727273 9.330078125  7.5 9.330078125  C 7.97585227272727 9.330078125  8.44992897727273 9.25075954861111  8.92223011363636 9.09212239583333  C 9.39453125 8.93348524305556  9.77805397727273 8.75640190972222  10.0727982954545 8.56087239583333  C 10.3675426136364 8.36534288194444  10.6321022727273 8.18825954861111  10.8664772727273 8.02962239583333  C 11.1008522727273 7.87098524305556  11.25 7.79166666666667  11.3139204545455 7.79166666666667  C 11.7471590909091 7.79166666666667  12.1431107954545 7.86545138888889  12.5017755681818 8.01302083333333  C 12.8604403409091 8.16059027777778  13.1640625 8.35796440972222  13.4126420454545 8.60514322916667  C 13.6612215909091 8.85232204861111  13.8813920454545 9.15115017361111  14.0731534090909 9.50162760416667  C 14.2649147727273 9.85210503472222  14.4176136363636 10.2118055555556  14.53125 10.5807291666667  C 14.6448863636364 10.9496527777778  14.7389914772727 11.3499348958333  14.8135653409091 11.7815755208333  C 14.8881392045455 12.2132161458333  14.9378551136364 12.6153428819444  14.9627130681818 12.9879557291667  Z M 10.3924005681818 1.2451171875  C 11.19140625 2.0751953125  11.5909090909091 3.07682291666667  11.5909090909091 4.25  C 11.5909090909091 5.42317708333333  11.19140625 6.4248046875  10.3924005681818 7.2548828125  C 9.59339488636364 8.0849609375  8.62926136363636 8.5  7.5 8.5  C 6.37073863636364 8.5  5.40660511363636 8.0849609375  4.60759943181818 7.2548828125  C 3.80859375 6.4248046875  3.40909090909091 5.42317708333333  3.40909090909091 4.25  C 3.40909090909091 3.07682291666667  3.80859375 2.0751953125  4.60759943181818 1.2451171875  C 5.40660511363636 0.4150390625  6.37073863636364 0  7.5 0  C 8.62926136363636 0  9.59339488636364 0.4150390625  10.3924005681818 1.2451171875  Z " fill-rule="nonzero" fill="#00a0e9" stroke="none" transform="matrix(1 0 0 1 1346 47 )" />
    <path d="M 14.9627130681818 12.9879557291667  C 14.9875710227273 13.3605685763889  15 13.7424045138889  15 14.1334635416667  C 15 15.0188802083333  14.7407670454545 15.7179904513889  14.2223011363636 16.2307942708333  C 13.7038352272727 16.7435980902778  13.0149147727273 17  12.1555397727273 17  L 2.84446022727273 17  C 1.98508522727273 17  1.29616477272727 16.7435980902778  0.777698863636364 16.2307942708333  C 0.259232954545455 15.7179904513889  0 15.0188802083333  0 14.1334635416667  C 0 13.7424045138889  0.0124289772727273 13.3605685763889  0.0372869318181818 12.9879557291667  C 0.0621448863636364 12.6153428819444  0.111860795454545 12.2132161458333  0.186434659090909 11.7815755208333  C 0.261008522727273 11.3499348958333  0.355113636363636 10.9496527777778  0.46875 10.5807291666667  C 0.582386363636364 10.2118055555556  0.735085227272727 9.85210503472222  0.926846590909091 9.50162760416667  C 1.11860795454545 9.15115017361111  1.33877840909091 8.85232204861111  1.58735795454545 8.60514322916667  C 1.8359375 8.35796440972222  2.13955965909091 8.16059027777778  2.49822443181818 8.01302083333333  C 2.85688920454545 7.86545138888889  3.25284090909091 7.79166666666667  3.68607954545455 7.79166666666667  C 3.75 7.79166666666667  3.89914772727273 7.87098524305556  4.13352272727273 8.02962239583333  C 4.36789772727273 8.18825954861111  4.63245738636364 8.36534288194444  4.92720170454546 8.56087239583333  C 5.22194602272727 8.75640190972222  5.60546875 8.93348524305556  6.07776988636364 9.09212239583333  C 6.55007102272727 9.25075954861111  7.02414772727273 9.330078125  7.5 9.330078125  C 7.97585227272727 9.330078125  8.44992897727273 9.25075954861111  8.92223011363636 9.09212239583333  C 9.39453125 8.93348524305556  9.77805397727273 8.75640190972222  10.0727982954545 8.56087239583333  C 10.3675426136364 8.36534288194444  10.6321022727273 8.18825954861111  10.8664772727273 8.02962239583333  C 11.1008522727273 7.87098524305556  11.25 7.79166666666667  11.3139204545455 7.79166666666667  C 11.7471590909091 7.79166666666667  12.1431107954545 7.86545138888889  12.5017755681818 8.01302083333333  C 12.8604403409091 8.16059027777778  13.1640625 8.35796440972222  13.4126420454545 8.60514322916667  C 13.6612215909091 8.85232204861111  13.8813920454545 9.15115017361111  14.0731534090909 9.50162760416667  C 14.2649147727273 9.85210503472222  14.4176136363636 10.2118055555556  14.53125 10.5807291666667  C 14.6448863636364 10.9496527777778  14.7389914772727 11.3499348958333  14.8135653409091 11.7815755208333  C 14.8881392045455 12.2132161458333  14.9378551136364 12.6153428819444  14.9627130681818 12.9879557291667  Z " stroke-width="8" stroke="#797979" fill="none" transform="matrix(1 0 0 1 1346 47 )" mask="url(#clip58)" />
    <path d="M 10.3924005681818 1.2451171875  C 11.19140625 2.0751953125  11.5909090909091 3.07682291666667  11.5909090909091 4.25  C 11.5909090909091 5.42317708333333  11.19140625 6.4248046875  10.3924005681818 7.2548828125  C 9.59339488636364 8.0849609375  8.62926136363636 8.5  7.5 8.5  C 6.37073863636364 8.5  5.40660511363636 8.0849609375  4.60759943181818 7.2548828125  C 3.80859375 6.4248046875  3.40909090909091 5.42317708333333  3.40909090909091 4.25  C 3.40909090909091 3.07682291666667  3.80859375 2.0751953125  4.60759943181818 1.2451171875  C 5.40660511363636 0.4150390625  6.37073863636364 0  7.5 0  C 8.62926136363636 0  9.59339488636364 0.4150390625  10.3924005681818 1.2451171875  Z " stroke-width="8" stroke="#797979" fill="none" transform="matrix(1 0 0 1 1346 47 )" mask="url(#clip58)" />
  </g>
</svg>