<?xml version="1.0" encoding="utf-8"?>
<svg version="1.1" xmlns:xlink="http://www.w3.org/1999/xlink" width="146px" height="173px" xmlns="http://www.w3.org/2000/svg">
  <defs>
    <mask fill="white" id="clip60">
      <path d="M 6 24  C 2.68629150101524 23.1818181818182  0 26.2954742398131  0 30.1363636363636  L 0 146.045454545455  C 0 149.886343942005  2.68629150101524 153  6 153  L 120 153  C 123.313708498985 153  126 149.886343942005  126 146.045454545455  L 126 30.1363636363636  C 126 26.2954742398131  123.313708498985 23.1818181818182  120 24  L 55.2 24  L 40.2 0  L 25.2 24  L 6 24  Z " fill-rule="evenodd" />
    </mask>
    <filter x="-10px" y="-10px" width="146px" height="173px" filterUnits="userSpaceOnUse" id="filter61">
      <feOffset dx="0" dy="0" in="SourceAlpha" result="shadowOffsetInner" />
      <feGaussianBlur stdDeviation="5" in="shadowOffsetInner" result="shadowGaussian" />
      <feComposite in2="shadowGaussian" operator="atop" in="SourceAlpha" result="shadowComposite" />
      <feColorMatrix type="matrix" values="0 0 0 0 0  0 0 0 0 0  0 0 0 0 0  0 0 0 0.349019607843137 0  " in="shadowComposite" />
    </filter>
    <g id="widget62">
      <path d="M 6 24  C 2.68629150101524 23.1818181818182  0 26.2954742398131  0 30.1363636363636  L 0 146.045454545455  C 0 149.886343942005  2.68629150101524 153  6 153  L 120 153  C 123.313708498985 153  126 149.886343942005  126 146.045454545455  L 126 30.1363636363636  C 126 26.2954742398131  123.313708498985 23.1818181818182  120 24  L 55.2 24  L 40.2 0  L 25.2 24  L 6 24  Z " fill-rule="nonzero" fill="#ffffff" stroke="none" />
      <path d="M 6 24  C 2.68629150101524 23.1818181818182  0 26.2954742398131  0 30.1363636363636  L 0 146.045454545455  C 0 149.886343942005  2.68629150101524 153  6 153  L 120 153  C 123.313708498985 153  126 149.886343942005  126 146.045454545455  L 126 30.1363636363636  C 126 26.2954742398131  123.313708498985 23.1818181818182  120 24  L 55.2 24  L 40.2 0  L 25.2 24  L 6 24  Z " stroke-width="2" stroke="#d7d7d7" fill="none" mask="url(#clip60)" />
    </g>
  </defs>
  <g transform="matrix(1 0 0 1 10 10 )">
    <use xlink:href="#widget62" filter="url(#filter61)" />
    <use xlink:href="#widget62" />
  </g>
</svg>