<?xml version="1.0" encoding="utf-8"?>
<svg version="1.1" xmlns:xlink="http://www.w3.org/1999/xlink" width="9px" height="6px" xmlns="http://www.w3.org/2000/svg">
  <defs>
    <mask fill="white" id="clip59">
      <path d="M 8.8330078125 0.197916666666667  C 8.9443359375 0.32986111111111  9 0.48611111111111  9 0.666666666666667  C 9 0.847222222222222  8.9443359375 1.00347222222222  8.8330078125 1.13541666666667  L 4.8955078125 5.80208333333333  C 4.7841796875 5.93402777777778  4.65234375 6  4.5 6  C 4.34765625 6  4.2158203125 5.93402777777778  4.1044921875 5.80208333333333  L 0.1669921875 1.13541666666667  C 0.0556640625 1.00347222222222  0 0.847222222222222  0 0.666666666666667  C 0 0.48611111111111  0.0556640625 0.32986111111111  0.1669921875 0.197916666666667  C 0.2783203125 0.0659722222222214  0.41015625 0  0.5625 0  L 8.4375 0  C 8.58984375 0  8.7216796875 0.0659722222222214  8.8330078125 0.197916666666667  Z " fill-rule="evenodd" />
    </mask>
  </defs>
  <g transform="matrix(1 0 0 1 -1394 -54 )">
    <path d="M 8.8330078125 0.197916666666667  C 8.9443359375 0.32986111111111  9 0.48611111111111  9 0.666666666666667  C 9 0.847222222222222  8.9443359375 1.00347222222222  8.8330078125 1.13541666666667  L 4.8955078125 5.80208333333333  C 4.7841796875 5.93402777777778  4.65234375 6  4.5 6  C 4.34765625 6  4.2158203125 5.93402777777778  4.1044921875 5.80208333333333  L 0.1669921875 1.13541666666667  C 0.0556640625 1.00347222222222  0 0.847222222222222  0 0.666666666666667  C 0 0.48611111111111  0.0556640625 0.32986111111111  0.1669921875 0.197916666666667  C 0.2783203125 0.0659722222222214  0.41015625 0  0.5625 0  L 8.4375 0  C 8.58984375 0  8.7216796875 0.0659722222222214  8.8330078125 0.197916666666667  Z " fill-rule="nonzero" fill="#0099ff" stroke="none" transform="matrix(1 0 0 1 1394 54 )" />
    <path d="M 8.8330078125 0.197916666666667  C 8.9443359375 0.32986111111111  9 0.48611111111111  9 0.666666666666667  C 9 0.847222222222222  8.9443359375 1.00347222222222  8.8330078125 1.13541666666667  L 4.8955078125 5.80208333333333  C 4.7841796875 5.93402777777778  4.65234375 6  4.5 6  C 4.34765625 6  4.2158203125 5.93402777777778  4.1044921875 5.80208333333333  L 0.1669921875 1.13541666666667  C 0.0556640625 1.00347222222222  0 0.847222222222222  0 0.666666666666667  C 0 0.48611111111111  0.0556640625 0.32986111111111  0.1669921875 0.197916666666667  C 0.2783203125 0.0659722222222214  0.41015625 0  0.5625 0  L 8.4375 0  C 8.58984375 0  8.7216796875 0.0659722222222214  8.8330078125 0.197916666666667  Z " stroke-width="8" stroke="#797979" fill="none" transform="matrix(1 0 0 1 1394 54 )" mask="url(#clip59)" />
  </g>
</svg>