<?xml version="1.0" encoding="utf-8"?>
<svg version="1.1" xmlns:xlink="http://www.w3.org/1999/xlink" width="15px" height="16px" xmlns="http://www.w3.org/2000/svg">
  <defs>
    <mask fill="white" id="clip65">
      <path d="M 14.2138671875 5.31730769230769  C 14.7379557291667 6.34935897435897  15 7.44871794871795  15 8.61538461538462  C 15 9.61538461538462  14.8014322916667 10.5705128205128  14.404296875 11.4807692307692  C 14.0071614583333 12.3910256410256  13.4733072916667 13.1762820512821  12.802734375 13.8365384615385  C 12.1321614583333 14.4967948717949  11.3346354166667 15.0224358974359  10.41015625 15.4134615384615  C 9.48567708333334 15.8044871794872  8.515625 16  7.5 16  C 6.484375 16  5.51432291666667 15.8044871794872  4.58984375 15.4134615384615  C 3.66536458333333 15.0224358974359  2.86783854166667 14.4967948717949  2.197265625 13.8365384615385  C 1.52669270833333 13.1762820512821  0.992838541666667 12.3910256410256  0.595703125 11.4807692307692  C 0.198567708333333 10.5705128205128  0 9.61538461538462  0 8.61538461538462  C 0 7.44871794871795  0.262044270833333 6.34935897435897  0.7861328125 5.31730769230769  C 1.31022135416667 4.28525641025641  2.04752604166667 3.41987179487179  2.998046875 2.72115384615385  C 3.27799479166667 2.51602564102564  3.5888671875 2.43589743589743  3.9306640625 2.48076923076923  C 4.2724609375 2.52564102564102  4.54427083333333 2.68589743589743  4.74609375 2.96153846153846  C 4.95442708333333 3.23076923076923  5.0341796875 3.53365384615385  4.9853515625 3.87019230769231  C 4.9365234375 4.20673076923077  4.775390625 4.4775641025641  4.501953125 4.68269230769231  C 3.86393229166667 5.15705128205128  3.37076822916667 5.73717948717949  3.0224609375 6.42307692307692  C 2.67415364583333 7.10897435897436  2.5 7.83974358974359  2.5 8.61538461538462  C 2.5 9.28205128205128  2.6318359375 9.91826923076923  2.8955078125 10.5240384615385  C 3.1591796875 11.1298076923077  3.515625 11.6538461538462  3.96484375 12.0961538461538  C 4.4140625 12.5384615384615  4.9462890625 12.8894230769231  5.5615234375 13.1490384615385  C 6.1767578125 13.4086538461538  6.82291666666667 13.5384615384615  7.5 13.5384615384615  C 8.17708333333333 13.5384615384615  8.8232421875 13.4086538461538  9.4384765625 13.1490384615385  C 10.0537109375 12.8894230769231  10.5859375 12.5384615384615  11.03515625 12.0961538461538  C 11.484375 11.6538461538462  11.8408203125 11.1298076923077  12.1044921875 10.5240384615385  C 12.3681640625 9.91826923076923  12.5 9.28205128205128  12.5 8.61538461538462  C 12.5 7.83974358974359  12.3258463541667 7.10897435897436  11.9775390625 6.42307692307692  C 11.6292317708333 5.73717948717949  11.1360677083333 5.15705128205128  10.498046875 4.68269230769231  C 10.224609375 4.4775641025641  10.0634765625 4.20673076923077  10.0146484375 3.87019230769231  C 9.9658203125 3.53365384615385  10.0455729166667 3.23076923076923  10.25390625 2.96153846153846  C 10.4557291666667 2.68589743589743  10.7291666666667 2.52564102564102  11.07421875 2.48076923076923  C 11.4192708333333 2.43589743589743  11.728515625 2.51602564102564  12.001953125 2.72115384615385  C 12.9524739583333 3.41987179487179  13.6897786458333 4.28525641025641  14.2138671875 5.31730769230769  Z M 8.37890625 0.365384615384615  C 8.62630208333333 0.608974358974358  8.75 0.897435897435896  8.75 1.23076923076923  L 8.75 7.38461538461539  C 8.75 7.71794871794872  8.62630208333333 8.00641025641026  8.37890625 8.25  C 8.13151041666667 8.49358974358974  7.83854166666667 8.61538461538462  7.5 8.61538461538462  C 7.16145833333333 8.61538461538462  6.86848958333333 8.49358974358974  6.62109375 8.25  C 6.37369791666667 8.00641025641026  6.25 7.71794871794872  6.25 7.38461538461539  L 6.25 1.23076923076923  C 6.25 0.897435897435896  6.37369791666667 0.608974358974358  6.62109375 0.365384615384615  C 6.86848958333333 0.121794871794872  7.16145833333333 0  7.5 0  C 7.83854166666667 0  8.13151041666667 0.121794871794872  8.37890625 0.365384615384615  Z " fill-rule="evenodd" />
    </mask>
  </defs>
  <g transform="matrix(1 0 0 1 -22 -124 )">
    <path d="M 14.2138671875 5.31730769230769  C 14.7379557291667 6.34935897435897  15 7.44871794871795  15 8.61538461538462  C 15 9.61538461538462  14.8014322916667 10.5705128205128  14.404296875 11.4807692307692  C 14.0071614583333 12.3910256410256  13.4733072916667 13.1762820512821  12.802734375 13.8365384615385  C 12.1321614583333 14.4967948717949  11.3346354166667 15.0224358974359  10.41015625 15.4134615384615  C 9.48567708333334 15.8044871794872  8.515625 16  7.5 16  C 6.484375 16  5.51432291666667 15.8044871794872  4.58984375 15.4134615384615  C 3.66536458333333 15.0224358974359  2.86783854166667 14.4967948717949  2.197265625 13.8365384615385  C 1.52669270833333 13.1762820512821  0.992838541666667 12.3910256410256  0.595703125 11.4807692307692  C 0.198567708333333 10.5705128205128  0 9.61538461538462  0 8.61538461538462  C 0 7.44871794871795  0.262044270833333 6.34935897435897  0.7861328125 5.31730769230769  C 1.31022135416667 4.28525641025641  2.04752604166667 3.41987179487179  2.998046875 2.72115384615385  C 3.27799479166667 2.51602564102564  3.5888671875 2.43589743589743  3.9306640625 2.48076923076923  C 4.2724609375 2.52564102564102  4.54427083333333 2.68589743589743  4.74609375 2.96153846153846  C 4.95442708333333 3.23076923076923  5.0341796875 3.53365384615385  4.9853515625 3.87019230769231  C 4.9365234375 4.20673076923077  4.775390625 4.4775641025641  4.501953125 4.68269230769231  C 3.86393229166667 5.15705128205128  3.37076822916667 5.73717948717949  3.0224609375 6.42307692307692  C 2.67415364583333 7.10897435897436  2.5 7.83974358974359  2.5 8.61538461538462  C 2.5 9.28205128205128  2.6318359375 9.91826923076923  2.8955078125 10.5240384615385  C 3.1591796875 11.1298076923077  3.515625 11.6538461538462  3.96484375 12.0961538461538  C 4.4140625 12.5384615384615  4.9462890625 12.8894230769231  5.5615234375 13.1490384615385  C 6.1767578125 13.4086538461538  6.82291666666667 13.5384615384615  7.5 13.5384615384615  C 8.17708333333333 13.5384615384615  8.8232421875 13.4086538461538  9.4384765625 13.1490384615385  C 10.0537109375 12.8894230769231  10.5859375 12.5384615384615  11.03515625 12.0961538461538  C 11.484375 11.6538461538462  11.8408203125 11.1298076923077  12.1044921875 10.5240384615385  C 12.3681640625 9.91826923076923  12.5 9.28205128205128  12.5 8.61538461538462  C 12.5 7.83974358974359  12.3258463541667 7.10897435897436  11.9775390625 6.42307692307692  C 11.6292317708333 5.73717948717949  11.1360677083333 5.15705128205128  10.498046875 4.68269230769231  C 10.224609375 4.4775641025641  10.0634765625 4.20673076923077  10.0146484375 3.87019230769231  C 9.9658203125 3.53365384615385  10.0455729166667 3.23076923076923  10.25390625 2.96153846153846  C 10.4557291666667 2.68589743589743  10.7291666666667 2.52564102564102  11.07421875 2.48076923076923  C 11.4192708333333 2.43589743589743  11.728515625 2.51602564102564  12.001953125 2.72115384615385  C 12.9524739583333 3.41987179487179  13.6897786458333 4.28525641025641  14.2138671875 5.31730769230769  Z M 8.37890625 0.365384615384615  C 8.62630208333333 0.608974358974358  8.75 0.897435897435896  8.75 1.23076923076923  L 8.75 7.38461538461539  C 8.75 7.71794871794872  8.62630208333333 8.00641025641026  8.37890625 8.25  C 8.13151041666667 8.49358974358974  7.83854166666667 8.61538461538462  7.5 8.61538461538462  C 7.16145833333333 8.61538461538462  6.86848958333333 8.49358974358974  6.62109375 8.25  C 6.37369791666667 8.00641025641026  6.25 7.71794871794872  6.25 7.38461538461539  L 6.25 1.23076923076923  C 6.25 0.897435897435896  6.37369791666667 0.608974358974358  6.62109375 0.365384615384615  C 6.86848958333333 0.121794871794872  7.16145833333333 0  7.5 0  C 7.83854166666667 0  8.13151041666667 0.121794871794872  8.37890625 0.365384615384615  Z " fill-rule="nonzero" fill="#000099" stroke="none" transform="matrix(1 0 0 1 22 124 )" />
    <path d="M 14.2138671875 5.31730769230769  C 14.7379557291667 6.34935897435897  15 7.44871794871795  15 8.61538461538462  C 15 9.61538461538462  14.8014322916667 10.5705128205128  14.404296875 11.4807692307692  C 14.0071614583333 12.3910256410256  13.4733072916667 13.1762820512821  12.802734375 13.8365384615385  C 12.1321614583333 14.4967948717949  11.3346354166667 15.0224358974359  10.41015625 15.4134615384615  C 9.48567708333334 15.8044871794872  8.515625 16  7.5 16  C 6.484375 16  5.51432291666667 15.8044871794872  4.58984375 15.4134615384615  C 3.66536458333333 15.0224358974359  2.86783854166667 14.4967948717949  2.197265625 13.8365384615385  C 1.52669270833333 13.1762820512821  0.992838541666667 12.3910256410256  0.595703125 11.4807692307692  C 0.198567708333333 10.5705128205128  0 9.61538461538462  0 8.61538461538462  C 0 7.44871794871795  0.262044270833333 6.34935897435897  0.7861328125 5.31730769230769  C 1.31022135416667 4.28525641025641  2.04752604166667 3.41987179487179  2.998046875 2.72115384615385  C 3.27799479166667 2.51602564102564  3.5888671875 2.43589743589743  3.9306640625 2.48076923076923  C 4.2724609375 2.52564102564102  4.54427083333333 2.68589743589743  4.74609375 2.96153846153846  C 4.95442708333333 3.23076923076923  5.0341796875 3.53365384615385  4.9853515625 3.87019230769231  C 4.9365234375 4.20673076923077  4.775390625 4.4775641025641  4.501953125 4.68269230769231  C 3.86393229166667 5.15705128205128  3.37076822916667 5.73717948717949  3.0224609375 6.42307692307692  C 2.67415364583333 7.10897435897436  2.5 7.83974358974359  2.5 8.61538461538462  C 2.5 9.28205128205128  2.6318359375 9.91826923076923  2.8955078125 10.5240384615385  C 3.1591796875 11.1298076923077  3.515625 11.6538461538462  3.96484375 12.0961538461538  C 4.4140625 12.5384615384615  4.9462890625 12.8894230769231  5.5615234375 13.1490384615385  C 6.1767578125 13.4086538461538  6.82291666666667 13.5384615384615  7.5 13.5384615384615  C 8.17708333333333 13.5384615384615  8.8232421875 13.4086538461538  9.4384765625 13.1490384615385  C 10.0537109375 12.8894230769231  10.5859375 12.5384615384615  11.03515625 12.0961538461538  C 11.484375 11.6538461538462  11.8408203125 11.1298076923077  12.1044921875 10.5240384615385  C 12.3681640625 9.91826923076923  12.5 9.28205128205128  12.5 8.61538461538462  C 12.5 7.83974358974359  12.3258463541667 7.10897435897436  11.9775390625 6.42307692307692  C 11.6292317708333 5.73717948717949  11.1360677083333 5.15705128205128  10.498046875 4.68269230769231  C 10.224609375 4.4775641025641  10.0634765625 4.20673076923077  10.0146484375 3.87019230769231  C 9.9658203125 3.53365384615385  10.0455729166667 3.23076923076923  10.25390625 2.96153846153846  C 10.4557291666667 2.68589743589743  10.7291666666667 2.52564102564102  11.07421875 2.48076923076923  C 11.4192708333333 2.43589743589743  11.728515625 2.51602564102564  12.001953125 2.72115384615385  C 12.9524739583333 3.41987179487179  13.6897786458333 4.28525641025641  14.2138671875 5.31730769230769  Z " stroke-width="8" stroke="#797979" fill="none" transform="matrix(1 0 0 1 22 124 )" mask="url(#clip65)" />
    <path d="M 8.37890625 0.365384615384615  C 8.62630208333333 0.608974358974358  8.75 0.897435897435896  8.75 1.23076923076923  L 8.75 7.38461538461539  C 8.75 7.71794871794872  8.62630208333333 8.00641025641026  8.37890625 8.25  C 8.13151041666667 8.49358974358974  7.83854166666667 8.61538461538462  7.5 8.61538461538462  C 7.16145833333333 8.61538461538462  6.86848958333333 8.49358974358974  6.62109375 8.25  C 6.37369791666667 8.00641025641026  6.25 7.71794871794872  6.25 7.38461538461539  L 6.25 1.23076923076923  C 6.25 0.897435897435896  6.37369791666667 0.608974358974358  6.62109375 0.365384615384615  C 6.86848958333333 0.121794871794872  7.16145833333333 0  7.5 0  C 7.83854166666667 0  8.13151041666667 0.121794871794872  8.37890625 0.365384615384615  Z " stroke-width="8" stroke="#797979" fill="none" transform="matrix(1 0 0 1 22 124 )" mask="url(#clip65)" />
  </g>
</svg>