<?xml version="1.0" encoding="utf-8"?>
<svg version="1.1" xmlns:xlink="http://www.w3.org/1999/xlink" width="20px" height="22px" xmlns="http://www.w3.org/2000/svg">
  <g transform="matrix(1 0 0 1 -1095 -50 )">
    <path d="M 10 21.0178571428571  C 10.1282051282051 21.0178571428571  10.1923076923077 20.952380952381  10.1923076923077 20.8214285714286  C 10.1923076923077 20.6904761904762  10.1282051282051 20.625  10 20.625  C 9.52724358974359 20.625  9.12059294871795 20.4510788690476  8.78004807692308 20.1032366071429  C 8.43950320512821 19.7553943452381  8.26923076923077 19.3400297619048  8.26923076923077 18.8571428571429  C 8.26923076923077 18.7261904761905  8.20512820512821 18.6607142857143  8.07692307692308 18.6607142857143  C 7.94871794871795 18.6607142857143  7.88461538461538 18.7261904761905  7.88461538461538 18.8571428571429  C 7.88461538461538 19.4546130952381  8.09094551282051 19.964099702381  8.50360576923077 20.3856026785714  C 8.91626602564103 20.8071056547619  9.4150641025641 21.0178571428571  10 21.0178571428571  Z M 5.38461538461538 7.07142857142857  C 5.38461538461538 11.4255952380952  4.31891025641026 14.8303571428571  2.1875 17  L 17.8125 17  C 15.6810897435897 14.8303571428571  14.6153846153846 11.4255952380952  14.6153846153846 7.07142857142857  C 14.6153846153846 6.65401785714286  14.5192307692308 6.22433035714286  14.3269230769231 5.78236607142857  C 14.1346153846154 5.34040178571429  13.8581730769231 4.91889880952381  13.4975961538462 4.51785714285714  C 13.1370192307692 4.11681547619048  12.6502403846154 3.78738839285714  12.0372596153846 3.52957589285714  C 11.4242788461538 3.27176339285714  10.7451923076923 3.14285714285714  10 3.14285714285714  C 9.25480769230769 3.14285714285714  8.57572115384615 3.27176339285714  7.96274038461538 3.52957589285714  C 7.34975961538462 3.78738839285714  6.86298076923077 4.11681547619048  6.50240384615385 4.51785714285714  C 6.14182692307692 4.91889880952381  5.86538461538462 5.34040178571429  5.67307692307692 5.78236607142857  C 5.48076923076923 6.22433035714286  5.38461538461538 6.65401785714286  5.38461538461538 7.07142857142857  Z M 18.90625 16.2053571428571  C 19.2347756410256 16.5818452380952  19.599358974359 16.9419642857143  20 17.2857142857143  C 20 17.7113095238095  19.8477564102564 18.0796130952381  19.5432692307692 18.390625  C 19.2387820512821 18.7016369047619  18.8782051282051 18.8571428571429  18.4615384615385 18.8571428571429  L 13.0769230769231 18.8571428571429  C 13.0769230769231 19.7247023809524  12.7764423076923 20.4654017857143  12.1754807692308 21.0792410714286  C 11.5745192307692 21.6930803571429  10.849358974359 22  10 22  C 9.15064102564103 22  8.42548076923077 21.6930803571429  7.82451923076923 21.0792410714286  C 7.22355769230769 20.4654017857143  6.92307692307692 19.7247023809524  6.92307692307692 18.8571428571429  L 1.53846153846154 18.8571428571429  C 1.12179487179487 18.8571428571429  0.761217948717949 18.7016369047619  0.456730769230769 18.390625  C 0.15224358974359 18.0796130952381  0 17.7113095238095  0 17.2857142857143  C 0.400641025641026 16.9419642857143  0.765224358974359 16.5818452380952  1.09375 16.2053571428571  C 1.42227564102564 15.828869047619  1.76282051282051 15.33984375  2.11538461538462 14.73828125  C 2.46794871794872 14.13671875  2.76642628205128 13.4880952380952  3.01081730769231 12.7924107142857  C 3.25520833333333 12.0967261904762  3.45552884615385 11.2537202380952  3.61177884615385 10.2633928571429  C 3.76802884615385 9.27306547619048  3.84615384615385 8.20907738095238  3.84615384615385 7.07142857142857  C 3.84615384615385 5.82738095238095  4.31490384615385 4.67131696428571  5.25240384615385 3.60323660714286  C 6.18990384615385 2.53515625  7.4198717948718 1.88653273809524  8.94230769230769 1.65736607142857  C 8.87820512820513 1.50186011904762  8.84615384615385 1.3422619047619  8.84615384615385 1.17857142857143  C 8.84615384615385 0.851190476190476  8.95833333333333 0.572916666666666  9.18269230769231 0.34375  C 9.40705128205128 0.114583333333334  9.67948717948718 0  10 0  C 10.3205128205128 0  10.5929487179487 0.114583333333334  10.8173076923077 0.34375  C 11.0416666666667 0.572916666666666  11.1538461538462 0.851190476190476  11.1538461538462 1.17857142857143  C 11.1538461538462 1.3422619047619  11.1217948717949 1.50186011904762  11.0576923076923 1.65736607142857  C 12.5801282051282 1.88653273809524  13.8100961538462 2.53515625  14.7475961538462 3.60323660714286  C 15.6850961538462 4.67131696428571  16.1538461538462 5.82738095238095  16.1538461538462 7.07142857142857  C 16.1538461538462 8.20907738095238  16.2319711538462 9.27306547619048  16.3882211538462 10.2633928571429  C 16.5444711538462 11.2537202380952  16.7447916666667 12.0967261904762  16.9891826923077 12.7924107142857  C 17.2335737179487 13.4880952380952  17.5320512820513 14.13671875  17.8846153846154 14.73828125  C 18.2371794871795 15.33984375  18.5777243589744 15.828869047619  18.90625 16.2053571428571  Z " fill-rule="nonzero" fill="#00a0e9" stroke="none" transform="matrix(1 0 0 1 1095 50 )" />
  </g>
</svg>