<?xml version="1.0" encoding="utf-8"?>
<svg version="1.1" xmlns:xlink="http://www.w3.org/1999/xlink" width="129px" height="10px" preserveAspectRatio="xMinYMid meet" viewBox="644 1388  129 8" xmlns="http://www.w3.org/2000/svg">
  <path d="M 646 1392  L 763 1392  A 5 5 0 0 0 768 1387 L 768 1199  A 5 5 0 0 1 773 1194 L 890 1194  " stroke-width="2" stroke="#ff3399" fill="none" />
  <path d="M 647.5 1388.5  A 3.5 3.5 0 0 0 644 1392 A 3.5 3.5 0 0 0 647.5 1395.5 A 3.5 3.5 0 0 0 651 1392 A 3.5 3.5 0 0 0 647.5 1388.5 Z M 884.892893218813 1189.70710678119  L 889.185786437627 1194  L 884.892893218813 1198.29289321881  L 886.307106781187 1199.70710678119  L 891.307106781187 1194.70710678119  L 892.014213562373 1194  L 891.307106781187 1193.29289321881  L 886.307106781187 1188.29289321881  L 884.892893218813 1189.70710678119  Z " fill-rule="nonzero" fill="#ff3399" stroke="none" />
</svg>