<?xml version="1.0" encoding="utf-8"?>
<svg version="1.1" xmlns:xlink="http://www.w3.org/1999/xlink" width="254px" height="10px" preserveAspectRatio="xMinYMid meet" viewBox="1037 1356  254 8" xmlns="http://www.w3.org/2000/svg">
  <path d="M 1286 846  L 1286 1355  A 5 5 0 0 1 1281 1360 L 1047 1360  A 5 5 0 0 0 1042 1365 L 1042 1411  " stroke-width="2" stroke="#ff3399" fill="none" />
  <path d="M 1286 844  A 3.5 3.5 0 0 0 1282.5 847.5 A 3.5 3.5 0 0 0 1286 851 A 3.5 3.5 0 0 0 1289.5 847.5 A 3.5 3.5 0 0 0 1286 844 Z M 1046.29289321881 1405.89289321881  L 1042 1410.18578643763  L 1037.70710678119 1405.89289321881  L 1036.29289321881 1407.30710678119  L 1041.29289321881 1412.30710678119  L 1042 1413.01421356237  L 1042.70710678119 1412.30710678119  L 1047.70710678119 1407.30710678119  L 1046.29289321881 1405.89289321881  Z " fill-rule="nonzero" fill="#ff3399" stroke="none" />
</svg>