<?xml version="1.0" encoding="utf-8"?>
<svg version="1.1" xmlns:xlink="http://www.w3.org/1999/xlink" width="22px" height="4px" xmlns="http://www.w3.org/2000/svg">
  <g transform="matrix(1 0 0 1 -353 -324 )">
    <path d="M 21.7795591182365 0.412371134020618  C 21.9265197060788 0.458190148911797  22 0.510882016036655  22 0.570446735395189  C 22 0.630011454753722  21.9265197060788 0.682703321878579  21.7795591182365 0.72852233676976  L 11.5070140280561 3.93127147766323  C 11.3600534402138 3.97709049255441  11.1910487641951 4  11 4  C 10.8089512358049 4  10.6399465597862 3.97709049255441  10.4929859719439 3.93127147766323  L 0.220440881763527 0.72852233676976  C 0.0734802939211759 0.682703321878579  0 0.630011454753722  0 0.570446735395189  C 0 0.510882016036655  0.0734802939211759 0.458190148911797  0.220440881763527 0.412371134020618  L 1.32264529058116 0.06872852233677  C 1.46960587842351 0.0229095074455894  1.63861055444222 0  1.82965931863727 0  C 2.02070808283233 0  2.18971275885104 0.0229095074455894  2.33667334669339 0.06872852233677  L 11 2.76975945017182  L 19.6633266533066 0.06872852233677  C 19.810287241149 0.0229095074455894  19.9792919171677 0  20.1703406813627 0  C 20.3613894455578 0  20.5303941215765 0.0229095074455894  20.6773547094188 0.06872852233677  L 21.7795591182365 0.412371134020618  Z " fill-rule="nonzero" fill="#555555" stroke="none" transform="matrix(1 0 0 1 353 324 )" />
  </g>
</svg>