<?xml version="1.0" encoding="utf-8"?>
<svg version="1.1" xmlns:xlink="http://www.w3.org/1999/xlink" width="20px" height="20px" xmlns="http://www.w3.org/2000/svg">
  <g transform="matrix(1 0 0 1 -455 -260 )">
    <path d="M 455 260  L 475 260  L 475 280  L 455 280  L 455 260  " fill-rule="nonzero" fill="#cccccc" stroke="none" />
    <path d="M 456 261  L 474 261  L 474 279  L 456 279  L 456 261  " fill-rule="nonzero" fill="#ffffff" stroke="none" />
    <path d="M 466.9 266  C 466.06 266  465.4 265.34  465.4 264.5  C 465.4 263.66  466.06 263  466.9 263  C 467.74 263  468.4 263.66  468.4 264.5  C 468.4 265.34  467.74 266  466.9 266  " fill-rule="nonzero" fill="#cccccc" stroke="none" />
    <path d="M 457 279  L 457 269.65  L 461.25 265.4  L 467.2 268.8  L 470.6 267.95  L 474 268.8  L 474 279  L 457 279  " fill-rule="nonzero" fill="#169bd5" stroke="none" />
  </g>
</svg>