<?xml version="1.0" encoding="utf-8"?>
<svg version="1.1" xmlns:xlink="http://www.w3.org/1999/xlink" width="10px" height="36px" preserveAspectRatio="xMidYMin meet" viewBox="256 985  8 36" xmlns="http://www.w3.org/2000/svg">
  <path d="M 294 370  L 275 370  A 5 5 0 0 0 270 375 L 270 985  A 5 5 0 0 1 265 990 A 5 5 0 0 0 260 995 L 260 1011  A 5 5 0 0 0 265 1016 L 277 1016  " stroke-width="2" stroke="#ff3399" fill="none" />
  <path d="M 292.5 366.5  A 3.5 3.5 0 0 0 289 370 A 3.5 3.5 0 0 0 292.5 373.5 A 3.5 3.5 0 0 0 296 370 A 3.5 3.5 0 0 0 292.5 366.5 Z M 271.892893218813 1011.70710678119  L 276.185786437627 1016  L 271.892893218813 1020.29289321881  L 273.307106781187 1021.70710678119  L 278.307106781187 1016.70710678119  L 279.014213562373 1016  L 278.307106781187 1015.29289321881  L 273.307106781187 1010.29289321881  L 271.892893218813 1011.70710678119  Z " fill-rule="nonzero" fill="#ff3399" stroke="none" />
</svg>