<?xml version="1.0" encoding="utf-8"?>
<svg version="1.1" xmlns:xlink="http://www.w3.org/1999/xlink" width="204px" height="10px" preserveAspectRatio="xMinYMid meet" viewBox="1211 1710  204 8" xmlns="http://www.w3.org/2000/svg">
  <path d="M 1398 701  L 1405 701  A 5 5 0 0 1 1410 706 L 1410 1709  A 5 5 0 0 1 1405 1714 L 1213 1714  " stroke-width="2" stroke="#ff3399" fill="none" />
  <path d="M 1399.5 697.5  A 3.5 3.5 0 0 0 1396 701 A 3.5 3.5 0 0 0 1399.5 704.5 A 3.5 3.5 0 0 0 1403 701 A 3.5 3.5 0 0 0 1399.5 697.5 Z M 1218.10710678119 1718.29289321881  L 1213.81421356237 1714  L 1218.10710678119 1709.70710678119  L 1216.69289321881 1708.29289321881  L 1211.69289321881 1713.29289321881  L 1210.98578643763 1714  L 1211.69289321881 1714.70710678119  L 1216.69289321881 1719.70710678119  L 1218.10710678119 1718.29289321881  Z " fill-rule="nonzero" fill="#ff3399" stroke="none" />
</svg>