<?xml version="1.0" encoding="utf-8"?>
<svg version="1.1" xmlns:xlink="http://www.w3.org/1999/xlink" width="10px" height="24px" preserveAspectRatio="xMidYMin meet" viewBox="1293 781  8 24" xmlns="http://www.w3.org/2000/svg">
  <path d="M 1297 783  L 1297 795  A 5 5 0 0 0 1302 800 L 1385 800  A 5 5 0 0 1 1390 805 L 1390 1288  A 5 5 0 0 1 1385 1293 L 1212 1293  " stroke-width="2" stroke="#ff3399" fill="none" />
  <path d="M 1297 781  A 3.5 3.5 0 0 0 1293.5 784.5 A 3.5 3.5 0 0 0 1297 788 A 3.5 3.5 0 0 0 1300.5 784.5 A 3.5 3.5 0 0 0 1297 781 Z M 1217.10710678119 1297.29289321881  L 1212.81421356237 1293  L 1217.10710678119 1288.70710678119  L 1215.69289321881 1287.29289321881  L 1210.69289321881 1292.29289321881  L 1209.98578643763 1293  L 1210.69289321881 1293.70710678119  L 1215.69289321881 1298.70710678119  L 1217.10710678119 1297.29289321881  Z " fill-rule="nonzero" fill="#ff3399" stroke="none" />
</svg>