<?xml version="1.0" encoding="utf-8"?>
<svg version="1.1" xmlns:xlink="http://www.w3.org/1999/xlink" width="10px" height="8px" xmlns="http://www.w3.org/2000/svg">
  <defs>
    <mask fill="white" id="clip50">
      <path d="M 9.8997995991984 0.824742268041237  C 9.96659986639947 0.916380297823594  10 1.02176403207331  10 1.14089347079038  C 10 1.26002290950744  9.96659986639947 1.36540664375716  9.8997995991984 1.45704467353952  L 5.23046092184369 7.86254295532646  C 5.16366065464262 7.95418098510882  5.08684034736139 8  5 8  C 4.91315965263861 8  4.83633934535738 7.95418098510882  4.76953907815631 7.86254295532646  L 0.100200400801603 1.45704467353952  C 0.0334001336005345 1.36540664375716  0 1.26002290950744  0 1.14089347079038  C 0 1.02176403207331  0.0334001336005345 0.916380297823594  0.100200400801603 0.824742268041237  L 0.601202404809619 0.13745704467354  C 0.668002672010688 0.0458190148911788  0.744822979291917 0  0.831663326653307 0  C 0.918503674014696 0  0.995323981295925 0.0458190148911788  1.06212424849699 0.13745704467354  L 5 5.53951890034364  L 8.93787575150301 0.13745704467354  C 9.00467601870407 0.0458190148911788  9.0814963259853 0  9.16833667334669 0  C 9.25517702070808 0  9.33199732798931 0.0458190148911788  9.39879759519038 0.13745704467354  L 9.8997995991984 0.824742268041237  Z " fill-rule="evenodd" />
    </mask>
  </defs>
  <g transform="matrix(1 0 0 1 -1130 -255 )">
    <path d="M 9.8997995991984 0.824742268041237  C 9.96659986639947 0.916380297823594  10 1.02176403207331  10 1.14089347079038  C 10 1.26002290950744  9.96659986639947 1.36540664375716  9.8997995991984 1.45704467353952  L 5.23046092184369 7.86254295532646  C 5.16366065464262 7.95418098510882  5.08684034736139 8  5 8  C 4.91315965263861 8  4.83633934535738 7.95418098510882  4.76953907815631 7.86254295532646  L 0.100200400801603 1.45704467353952  C 0.0334001336005345 1.36540664375716  0 1.26002290950744  0 1.14089347079038  C 0 1.02176403207331  0.0334001336005345 0.916380297823594  0.100200400801603 0.824742268041237  L 0.601202404809619 0.13745704467354  C 0.668002672010688 0.0458190148911788  0.744822979291917 0  0.831663326653307 0  C 0.918503674014696 0  0.995323981295925 0.0458190148911788  1.06212424849699 0.13745704467354  L 5 5.53951890034364  L 8.93787575150301 0.13745704467354  C 9.00467601870407 0.0458190148911788  9.0814963259853 0  9.16833667334669 0  C 9.25517702070808 0  9.33199732798931 0.0458190148911788  9.39879759519038 0.13745704467354  L 9.8997995991984 0.824742268041237  Z " fill-rule="nonzero" fill="#666666" stroke="none" transform="matrix(1 0 0 1 1130 255 )" />
    <path d="M 9.8997995991984 0.824742268041237  C 9.96659986639947 0.916380297823594  10 1.02176403207331  10 1.14089347079038  C 10 1.26002290950744  9.96659986639947 1.36540664375716  9.8997995991984 1.45704467353952  L 5.23046092184369 7.86254295532646  C 5.16366065464262 7.95418098510882  5.08684034736139 8  5 8  C 4.91315965263861 8  4.83633934535738 7.95418098510882  4.76953907815631 7.86254295532646  L 0.100200400801603 1.45704467353952  C 0.0334001336005345 1.36540664375716  0 1.26002290950744  0 1.14089347079038  C 0 1.02176403207331  0.0334001336005345 0.916380297823594  0.100200400801603 0.824742268041237  L 0.601202404809619 0.13745704467354  C 0.668002672010688 0.0458190148911788  0.744822979291917 0  0.831663326653307 0  C 0.918503674014696 0  0.995323981295925 0.0458190148911788  1.06212424849699 0.13745704467354  L 5 5.53951890034364  L 8.93787575150301 0.13745704467354  C 9.00467601870407 0.0458190148911788  9.0814963259853 0  9.16833667334669 0  C 9.25517702070808 0  9.33199732798931 0.0458190148911788  9.39879759519038 0.13745704467354  L 9.8997995991984 0.824742268041237  Z " stroke-width="8" stroke="#797979" fill="none" transform="matrix(1 0 0 1 1130 255 )" mask="url(#clip50)" />
  </g>
</svg>