<?xml version="1.0" encoding="utf-8"?>
<svg version="1.1" xmlns:xlink="http://www.w3.org/1999/xlink" width="20px" height="20px" preserveAspectRatio="xMinYMid meet" viewBox="1465 1649  20 18" xmlns="http://www.w3.org/2000/svg">
  <path d="M 1227 986  L 1227 1615  A 5 5 0 0 0 1232 1620 L 1485 1620  A 5 5 0 0 1 1490 1625 L 1490 1653  A 5 5 0 0 1 1485 1658 L 1475 1658  " stroke-width="2" stroke="#ff3399" fill="none" />
  <path d="M 1224 990  L 1230 990  L 1230 984  L 1224 984  L 1224 990  Z M 1480.10710678119 1662.29289321881  L 1475.81421356237 1658  L 1480.10710678119 1653.70710678119  L 1478.69289321881 1652.29289321881  L 1473.69289321881 1657.29289321881  L 1472.98578643763 1658  L 1473.69289321881 1658.70710678119  L 1478.69289321881 1663.70710678119  L 1480.10710678119 1662.29289321881  Z " fill-rule="nonzero" fill="#ff3399" stroke="none" />
</svg>