<?xml version="1.0" encoding="utf-8"?>
<svg version="1.1" xmlns:xlink="http://www.w3.org/1999/xlink" width="20px" height="20px" preserveAspectRatio="xMinYMid meet" viewBox="285 1458  20 18" xmlns="http://www.w3.org/2000/svg">
  <path d="M 344 908  L 344 905  A 5 5 0 0 0 339 900 L 285 900  A 5 5 0 0 0 280 905 L 280 1462  A 5 5 0 0 0 285 1467 L 295 1467  " stroke-width="2" stroke="#ff3399" fill="none" />
  <path d="M 344 903  A 3.5 3.5 0 0 0 340.5 906.5 A 3.5 3.5 0 0 0 344 910 A 3.5 3.5 0 0 0 347.5 906.5 A 3.5 3.5 0 0 0 344 903 Z M 289.892893218813 1462.70710678119  L 294.185786437627 1467  L 289.892893218813 1471.29289321881  L 291.307106781187 1472.70710678119  L 296.307106781187 1467.70710678119  L 297.014213562373 1467  L 296.307106781187 1466.29289321881  L 291.307106781187 1461.29289321881  L 289.892893218813 1462.70710678119  Z " fill-rule="nonzero" fill="#ff3399" stroke="none" />
</svg>