<?xml version="1.0" encoding="utf-8"?>
<svg version="1.1" xmlns:xlink="http://www.w3.org/1999/xlink" width="12px" height="12px" viewBox="855 612  12 12" xmlns="http://www.w3.org/2000/svg">
  <path d="M 861 612  C 864.36 612  867 614.64  867 618  C 867 621.36  864.36 624  861 624  C 857.64 624  855 621.36  855 618  C 855 614.64  857.64 612  861 612  Z " fill-rule="nonzero" fill="#ffffff" stroke="none" />
  <path d="M 861 612.5  C 864.08 612.5  866.5 614.92  866.5 618  C 866.5 621.08  864.08 623.5  861 623.5  C 857.92 623.5  855.5 621.08  855.5 618  C 855.5 614.92  857.92 612.5  861 612.5  Z " stroke-width="1" stroke="#797979" fill="none" />
  <path d="M 861 621  C 859.32 621  858 619.68  858 618  C 858 616.32  859.32 615  861 615  C 862.68 615  864 616.32  864 618  C 864 619.68  862.68 621  861 621  " fill-rule="nonzero" fill="#797979" stroke="none" />
</svg>