<?xml version="1.0" encoding="utf-8"?>
<svg version="1.1" xmlns:xlink="http://www.w3.org/1999/xlink" width="12px" height="12px" viewBox="388 425  12 12" xmlns="http://www.w3.org/2000/svg">
  <path d="M 394 425  C 397.36 425  400 427.64  400 431  C 400 434.36  397.36 437  394 437  C 390.64 437  388 434.36  388 431  C 388 427.64  390.64 425  394 425  Z " fill-rule="nonzero" fill="#ffffff" stroke="none" />
  <path d="M 394 425.5  C 397.08 425.5  399.5 427.92  399.5 431  C 399.5 434.08  397.08 436.5  394 436.5  C 390.92 436.5  388.5 434.08  388.5 431  C 388.5 427.92  390.92 425.5  394 425.5  Z " stroke-width="1" stroke="#797979" fill="none" />
  <path d="M 394 434  C 392.32 434  391 432.68  391 431  C 391 429.32  392.32 428  394 428  C 395.68 428  397 429.32  397 431  C 397 432.68  395.68 434  394 434  " fill-rule="nonzero" fill="#797979" stroke="none" />
</svg>