<?xml version="1.0" encoding="utf-8"?>
<svg version="1.1" xmlns:xlink="http://www.w3.org/1999/xlink" width="10px" height="73px" preserveAspectRatio="xMidYMin meet" viewBox="1096 665  8 73" xmlns="http://www.w3.org/2000/svg">
  <path d="M 1100 736  L 1100 675  A 5 5 0 0 1 1105 670 L 1510 670  A 5 5 0 0 1 1515 675 L 1515 682  " stroke-width="2" stroke="#ff3399" fill="none" />
  <path d="M 1100 731  A 3.5 3.5 0 0 0 1096.5 734.5 A 3.5 3.5 0 0 0 1100 738 A 3.5 3.5 0 0 0 1103.5 734.5 A 3.5 3.5 0 0 0 1100 731 Z M 1519.29289321881 676.892893218813  L 1515 681.185786437627  L 1510.70710678119 676.892893218813  L 1509.29289321881 678.307106781187  L 1514.29289321881 683.307106781187  L 1515 684.014213562373  L 1515.70710678119 683.307106781187  L 1520.70710678119 678.307106781187  L 1519.29289321881 676.892893218813  Z " fill-rule="nonzero" fill="#ff3399" stroke="none" />
</svg>