<?xml version="1.0" encoding="utf-8"?>
<svg version="1.1" xmlns:xlink="http://www.w3.org/1999/xlink" width="20px" height="2px" xmlns="http://www.w3.org/2000/svg">
  <g transform="matrix(1 0 0 1 -1060 -1133 )">
    <path d="M 19.6022727272727 0.145833333333333  C 19.8674242424242 0.243055555555555  20 0.361111111111111  20 0.5  L 20 1.5  C 20 1.63888888888889  19.8674242424242 1.75694444444444  19.6022727272727 1.85416666666667  C 19.3371212121212 1.95138888888889  19.0151515151515 2  18.6363636363636 2  L 1.36363636363636 2  C 0.984848484848485 2  0.662878787878788 1.95138888888889  0.397727272727273 1.85416666666667  C 0.132575757575758 1.75694444444444  0 1.63888888888889  0 1.5  L 0 0.5  C 0 0.361111111111111  0.132575757575758 0.243055555555555  0.397727272727273 0.145833333333333  C 0.662878787878788 0.0486111111111107  0.984848484848485 0  1.36363636363636 0  L 18.6363636363636 0  C 19.0151515151515 0  19.3371212121212 0.0486111111111107  19.6022727272727 0.145833333333333  Z " fill-rule="nonzero" fill="#039d12" stroke="none" transform="matrix(1 0 0 1 1060 1133 )" />
  </g>
</svg>