<?xml version="1.0" encoding="utf-8"?>
<svg version="1.1" xmlns:xlink="http://www.w3.org/1999/xlink" width="10px" height="15px" preserveAspectRatio="xMidYMin meet" viewBox="509 199  8 15" xmlns="http://www.w3.org/2000/svg">
  <path d="M 513 201  L 513 204  A 5 5 0 0 1 508 209 L 265 209  A 5 5 0 0 0 260 214 L 260 1007  A 5 5 0 0 0 265 1012 L 277 1012  " stroke-width="2" stroke="#ff3399" fill="none" />
  <path d="M 513 199  A 3.5 3.5 0 0 0 509.5 202.5 A 3.5 3.5 0 0 0 513 206 A 3.5 3.5 0 0 0 516.5 202.5 A 3.5 3.5 0 0 0 513 199 Z M 271.892893218813 1007.70710678119  L 276.185786437627 1012  L 271.892893218813 1016.29289321881  L 273.307106781187 1017.70710678119  L 278.307106781187 1012.70710678119  L 279.014213562373 1012  L 278.307106781187 1011.29289321881  L 273.307106781187 1006.29289321881  L 271.892893218813 1007.70710678119  Z " fill-rule="nonzero" fill="#ff3399" stroke="none" />
</svg>