<?xml version="1.0" encoding="utf-8"?>
<svg version="1.1" xmlns:xlink="http://www.w3.org/1999/xlink" width="21px" height="20px" preserveAspectRatio="xMinYMid meet" viewBox="1379 871  21 18" xmlns="http://www.w3.org/2000/svg">
  <path d="M 1388 880  L 1605 880  A 5 5 0 0 1 1610 885 L 1610 1082  A 5 5 0 0 1 1605 1087 L 1600 1087  " stroke-width="2" stroke="#ff3399" fill="none" />
  <path d="M 1389.5 876.5  A 3.5 3.5 0 0 0 1386 880 A 3.5 3.5 0 0 0 1389.5 883.5 A 3.5 3.5 0 0 0 1393 880 A 3.5 3.5 0 0 0 1389.5 876.5 Z M 1605.10710678119 1091.29289321881  L 1600.81421356237 1087  L 1605.10710678119 1082.70710678119  L 1603.69289321881 1081.29289321881  L 1598.69289321881 1086.29289321881  L 1597.98578643763 1087  L 1598.69289321881 1087.70710678119  L 1603.69289321881 1092.70710678119  L 1605.10710678119 1091.29289321881  Z " fill-rule="nonzero" fill="#ff3399" stroke="none" />
</svg>