<?xml version="1.0" encoding="utf-8"?>
<svg version="1.1" xmlns:xlink="http://www.w3.org/1999/xlink" width="40px" height="10px" preserveAspectRatio="xMinYMid meet" viewBox="1146 1956  40 8" xmlns="http://www.w3.org/2000/svg">
  <path d="M 1215 430  L 1186 430  A 5 5 0 0 0 1181 435 L 1181 1955  A 5 5 0 0 1 1176 1960 L 1148 1960  " stroke-width="2" stroke="#ff3399" fill="none" />
  <path d="M 1213.5 426.5  A 3.5 3.5 0 0 0 1210 430 A 3.5 3.5 0 0 0 1213.5 433.5 A 3.5 3.5 0 0 0 1217 430 A 3.5 3.5 0 0 0 1213.5 426.5 Z M 1153.10710678119 1964.29289321881  L 1148.81421356237 1960  L 1153.10710678119 1955.70710678119  L 1151.69289321881 1954.29289321881  L 1146.69289321881 1959.29289321881  L 1145.98578643763 1960  L 1146.69289321881 1960.70710678119  L 1151.69289321881 1965.70710678119  L 1153.10710678119 1964.29289321881  Z " fill-rule="nonzero" fill="#ff3399" stroke="none" />
</svg>