<?xml version="1.0" encoding="utf-8"?>
<svg version="1.1" xmlns:xlink="http://www.w3.org/1999/xlink" width="20px" height="20px" preserveAspectRatio="xMinYMid meet" viewBox="2426 95  20 18" xmlns="http://www.w3.org/2000/svg">
  <path d="M 363 157  L 363 109  A 5 5 0 0 1 368 104 L 2436 104  " stroke-width="2" stroke="#ff3399" fill="none" />
  <path d="M 363 152  A 3.5 3.5 0 0 0 359.5 155.5 A 3.5 3.5 0 0 0 363 159 A 3.5 3.5 0 0 0 366.5 155.5 A 3.5 3.5 0 0 0 363 152 Z M 2430.89289321881 99.7071067811866  L 2435.18578643763 104  L 2430.89289321881 108.292893218813  L 2432.30710678119 109.707106781187  L 2437.30710678119 104.707106781187  L 2438.01421356237 104  L 2437.30710678119 103.292893218813  L 2432.30710678119 98.2928932188134  L 2430.89289321881 99.7071067811866  Z " fill-rule="nonzero" fill="#ff3399" stroke="none" />
</svg>