<?xml version="1.0" encoding="utf-8"?>
<svg version="1.1" xmlns:xlink="http://www.w3.org/1999/xlink" width="241px" height="32px" xmlns="http://www.w3.org/2000/svg">
  <defs>
    <mask fill="white" id="clip55">
      <path d="M 0 28  L 0 4  C 0 1.76000000000001  1.75999999999999 0  4 0  L 237 0  C 239.24 0  241 1.76000000000001  241 4  L 241 28  C 241 30.24  239.24 32  237 32  L 60 32  L 4 32  C 1.75999999999999 32  0 30.24  0 28  Z " fill-rule="evenodd" />
    </mask>
  </defs>
  <g transform="matrix(1 0 0 1 -360 -102 )">
    <path d="M 0 28  L 0 4  C 0 1.76000000000001  1.75999999999999 0  4 0  L 237 0  C 239.24 0  241 1.76000000000001  241 4  L 241 28  C 241 30.24  239.24 32  237 32  L 60 32  L 4 32  C 1.75999999999999 32  0 30.24  0 28  Z " fill-rule="nonzero" fill="#ffffff" stroke="none" transform="matrix(1 0 0 1 360 102 )" />
    <path d="M 0 28  L 0 4  C 0 1.76000000000001  1.75999999999999 0  4 0  L 237 0  C 239.24 0  241 1.76000000000001  241 4  L 241 28  C 241 30.24  239.24 32  237 32  L 60 32  L 4 32  C 1.75999999999999 32  0 30.24  0 28  Z " stroke-width="2" stroke="#d9d9d9" fill="none" transform="matrix(1 0 0 1 360 102 )" mask="url(#clip55)" />
  </g>
</svg>