<?xml version="1.0" encoding="utf-8"?>
<svg version="1.1" xmlns:xlink="http://www.w3.org/1999/xlink" width="180px" height="32px" xmlns="http://www.w3.org/2000/svg">
  <defs>
    <mask fill="white" id="clip56">
      <path d="M 0 28  L 0 4  C 0 1.76000000000001  1.31452282157676 0  2.98755186721992 0  L 177.01244813278 0  C 178.685477178423 0  180 1.76000000000001  180 4  L 180 28  C 180 30.24  178.685477178423 32  177.01244813278 32  L 44.8132780082988 32  L 2.98755186721992 32  C 1.31452282157676 32  0 30.24  0 28  Z " fill-rule="evenodd" />
    </mask>
  </defs>
  <g transform="matrix(1 0 0 1 -1066 -102 )">
    <path d="M 0 28  L 0 4  C 0 1.76000000000001  1.31452282157676 0  2.98755186721992 0  L 177.01244813278 0  C 178.685477178423 0  180 1.76000000000001  180 4  L 180 28  C 180 30.24  178.685477178423 32  177.01244813278 32  L 44.8132780082988 32  L 2.98755186721992 32  C 1.31452282157676 32  0 30.24  0 28  Z " fill-rule="nonzero" fill="#ffffff" stroke="none" transform="matrix(1 0 0 1 1066 102 )" />
    <path d="M 0 28  L 0 4  C 0 1.76000000000001  1.31452282157676 0  2.98755186721992 0  L 177.01244813278 0  C 178.685477178423 0  180 1.76000000000001  180 4  L 180 28  C 180 30.24  178.685477178423 32  177.01244813278 32  L 44.8132780082988 32  L 2.98755186721992 32  C 1.31452282157676 32  0 30.24  0 28  Z " stroke-width="2" stroke="#d9d9d9" fill="none" transform="matrix(1 0 0 1 1066 102 )" mask="url(#clip56)" />
  </g>
</svg>