<?xml version="1.0" encoding="utf-8"?>
<svg version="1.1" xmlns:xlink="http://www.w3.org/1999/xlink" width="20px" height="20px" preserveAspectRatio="xMinYMid meet" viewBox="393 1193  20 18" xmlns="http://www.w3.org/2000/svg">
  <path d="M 1375 183  L 1425 183  A 5 5 0 0 1 1430 188 L 1430 985  A 5 5 0 0 1 1425 990 L 395 990  A 5 5 0 0 0 390 995 L 390 1197  A 5 5 0 0 0 395 1202 L 403 1202  " stroke-width="2" stroke="#ff3399" fill="none" />
  <path d="M 1376.5 179.5  A 3.5 3.5 0 0 0 1373 183 A 3.5 3.5 0 0 0 1376.5 186.5 A 3.5 3.5 0 0 0 1380 183 A 3.5 3.5 0 0 0 1376.5 179.5 Z M 397.892893218813 1197.70710678119  L 402.185786437627 1202  L 397.892893218813 1206.29289321881  L 399.307106781187 1207.70710678119  L 404.307106781187 1202.70710678119  L 405.014213562373 1202  L 404.307106781187 1201.29289321881  L 399.307106781187 1196.29289321881  L 397.892893218813 1197.70710678119  Z " fill-rule="nonzero" fill="#ff3399" stroke="none" />
</svg>