<?xml version="1.0" encoding="utf-8"?>
<svg version="1.1" xmlns:xlink="http://www.w3.org/1999/xlink" width="7px" height="4px" xmlns="http://www.w3.org/2000/svg">
  <g transform="matrix(1 0 0 1 -231 -459 )">
    <path d="M 6.92985971943888 0.412371134020618  C 6.97661990647963 0.458190148911797  7 0.510882016036655  7 0.570446735395189  C 7 0.630011454753722  6.97661990647963 0.682703321878579  6.92985971943888 0.72852233676976  L 3.66132264529058 3.93127147766323  C 3.61456245824983 3.97709049255441  3.56078824315297 4  3.5 4  C 3.43921175684703 4  3.38543754175017 3.97709049255441  3.33867735470942 3.93127147766323  L 0.0701402805611222 0.72852233676976  C 0.0233800935203742 0.682703321878579  0 0.630011454753722  0 0.570446735395189  C 0 0.510882016036655  0.0233800935203742 0.458190148911797  0.0701402805611222 0.412371134020618  L 0.420841683366733 0.06872852233677  C 0.467601870407482 0.0229095074455894  0.521376085504342 0  0.582164328657315 0  C 0.642952571810287 0  0.696726786907148 0.0229095074455894  0.743486973947896 0.06872852233677  L 3.5 2.76975945017182  L 6.2565130260521 0.06872852233677  C 6.30327321309285 0.0229095074455894  6.35704742818971 0  6.41783567134268 0  C 6.47862391449566 0  6.53239812959252 0.0229095074455894  6.57915831663327 0.06872852233677  L 6.92985971943888 0.412371134020618  Z " fill-rule="nonzero" fill="#555555" stroke="none" transform="matrix(1 0 0 1 231 459 )" />
  </g>
</svg>