<?xml version="1.0" encoding="utf-8"?>
<svg version="1.1" xmlns:xlink="http://www.w3.org/1999/xlink" width="10px" height="582px" preserveAspectRatio="xMidYMin meet" viewBox="236 445  8 582" xmlns="http://www.w3.org/2000/svg">
  <path d="M 1287 463  L 1287 455  A 5 5 0 0 0 1282 450 L 245 450  A 5 5 0 0 0 240 455 L 240 1017  A 5 5 0 0 0 245 1022 L 254 1022  " stroke-width="2" stroke="#ff3399" fill="none" />
  <path d="M 1290 459  L 1284 459  L 1284 465  L 1290 465  L 1290 459  Z M 248.892893218813 1017.70710678119  L 253.185786437627 1022  L 248.892893218813 1026.29289321881  L 250.307106781187 1027.70710678119  L 255.307106781187 1022.70710678119  L 256.014213562373 1022  L 255.307106781187 1021.29289321881  L 250.307106781187 1016.29289321881  L 248.892893218813 1017.70710678119  Z " fill-rule="nonzero" fill="#ff3399" stroke="none" />
</svg>