<?xml version="1.0" encoding="utf-8"?>
<svg version="1.1" xmlns:xlink="http://www.w3.org/1999/xlink" width="20px" height="20px" preserveAspectRatio="xMinYMid meet" viewBox="640 1654  20 18" xmlns="http://www.w3.org/2000/svg">
  <path d="M 611 1566  L 645 1566  A 5 5 0 0 1 650 1571 L 650 1663  " stroke-width="2" stroke="#ff3399" fill="none" />
  <path d="M 612.5 1562.5  A 3.5 3.5 0 0 0 609 1566 A 3.5 3.5 0 0 0 612.5 1569.5 A 3.5 3.5 0 0 0 616 1566 A 3.5 3.5 0 0 0 612.5 1562.5 Z M 654.292893218813 1657.89289321881  L 650 1662.18578643763  L 645.707106781187 1657.89289321881  L 644.292893218813 1659.30710678119  L 649.292893218813 1664.30710678119  L 650 1665.01421356237  L 650.707106781187 1664.30710678119  L 655.707106781187 1659.30710678119  L 654.292893218813 1657.89289321881  Z " fill-rule="nonzero" fill="#ff3399" stroke="none" />
</svg>