<?xml version="1.0" encoding="utf-8"?>
<svg version="1.1" xmlns:xlink="http://www.w3.org/1999/xlink" width="20px" height="21px" preserveAspectRatio="xMidYMin meet" viewBox="1300 1628  18 21" xmlns="http://www.w3.org/2000/svg">
  <path d="M 1308.08060461174 1640.31705803038  A 2 2 0 0 0 1307 1640 L 1301 1640  " stroke-width="2" stroke="#ff3399" fill="none" />
  <path d="M 1306.64159265359 1636.5  A 3.5 3.5 0 0 0 1303.14159265359 1640 A 3.5 3.5 0 0 0 1306.64159265359 1643.5 A 3.5 3.5 0 0 0 1310.14159265359 1640 A 3.5 3.5 0 0 0 1306.64159265359 1636.5 Z M 1306.10710678119 1644.29289321881  L 1301.81421356237 1640  L 1306.10710678119 1635.70710678119  L 1304.69289321881 1634.29289321881  L 1299.69289321881 1639.29289321881  L 1298.98578643763 1640  L 1299.69289321881 1640.70710678119  L 1304.69289321881 1645.70710678119  L 1306.10710678119 1644.29289321881  Z " fill-rule="nonzero" fill="#ff3399" stroke="none" />
</svg>