<?xml version="1.0" encoding="utf-8"?>
<svg version="1.1" xmlns:xlink="http://www.w3.org/1999/xlink" width="20px" height="20px" preserveAspectRatio="xMinYMid meet" viewBox="279 435  20 18" xmlns="http://www.w3.org/2000/svg">
  <path d="M 290 444  L 285 444  A 5 5 0 0 0 280 449 L 280 1035  A 5 5 0 0 0 285 1040 L 424 1040  A 5 5 0 0 1 429 1045 L 429 1052  " stroke-width="2" stroke="#ff3399" fill="none" />
  <path d="M 286 441  L 286 447  L 292 447  L 292 441  L 286 441  Z M 433.292893218813 1046.89289321881  L 429 1051.18578643763  L 424.707106781187 1046.89289321881  L 423.292893218813 1048.30710678119  L 428.292893218813 1053.30710678119  L 429 1054.01421356237  L 429.707106781187 1053.30710678119  L 434.707106781187 1048.30710678119  L 433.292893218813 1046.89289321881  Z " fill-rule="nonzero" fill="#ff3399" stroke="none" />
</svg>