<?xml version="1.0" encoding="utf-8"?>
<svg version="1.1" xmlns:xlink="http://www.w3.org/1999/xlink" width="20px" height="20px" preserveAspectRatio="xMinYMid meet" viewBox="1326 686  20 18" xmlns="http://www.w3.org/2000/svg">
  <path d="M 1335 695  L 1345 695  A 5 5 0 0 1 1350 700 L 1350 1035  A 5 5 0 0 1 1345 1040 L 1289 1040  A 5 5 0 0 0 1284 1045 L 1284 1052  " stroke-width="2" stroke="#ff3399" fill="none" />
  <path d="M 1339 698  L 1339 692  L 1333 692  L 1333 698  L 1339 698  Z M 1288.29289321881 1046.89289321881  L 1284 1051.18578643763  L 1279.70710678119 1046.89289321881  L 1278.29289321881 1048.30710678119  L 1283.29289321881 1053.30710678119  L 1284 1054.01421356237  L 1284.70710678119 1053.30710678119  L 1289.70710678119 1048.30710678119  L 1288.29289321881 1046.89289321881  Z " fill-rule="nonzero" fill="#ff3399" stroke="none" />
</svg>