<?xml version="1.0" encoding="utf-8"?>
<svg version="1.1" xmlns:xlink="http://www.w3.org/1999/xlink" width="452px" height="10px" preserveAspectRatio="xMinYMid meet" viewBox="905 1216  452 8" xmlns="http://www.w3.org/2000/svg">
  <path d="M 1352 1206  L 1352 1215  A 5 5 0 0 1 1347 1220 L 915 1220  A 5 5 0 0 1 910 1215 L 910 1069  A 5 5 0 0 0 905 1064 L 893 1064  " stroke-width="2" stroke="#ff3399" fill="none" />
  <path d="M 1349 1210  L 1355 1210  L 1355 1204  L 1349 1204  L 1349 1210  Z M 898.107106781187 1068.29289321881  L 893.814213562373 1064  L 898.107106781187 1059.70710678119  L 896.692893218813 1058.29289321881  L 891.692893218813 1063.29289321881  L 890.985786437627 1064  L 891.692893218813 1064.70710678119  L 896.692893218813 1069.70710678119  L 898.107106781187 1068.29289321881  Z " fill-rule="nonzero" fill="#ff3399" stroke="none" />
</svg>