<?xml version="1.0" standalone="no"?><!DOCTYPE svg PUBLIC "-//W3C//DTD SVG 1.1//EN" "http://www.w3.org/Graphics/SVG/1.1/DTD/svg11.dtd"><svg t="1715349166011" class="icon" viewBox="0 0 1024 1024" version="1.1" xmlns="http://www.w3.org/2000/svg" p-id="10264" xmlns:xlink="http://www.w3.org/1999/xlink" width="200" height="200"><path d="M965.632 198.656h-210.944C728.064 89.4976 629.3504 8.192 512 8.192S295.936 89.4976 269.312 198.656h-202.752C38.912 198.656 16.384 221.184 16.384 248.832v655.36C16.384 965.8368 66.3552 1015.808 128 1015.808h776.192c61.6448 0 111.616-49.9712 111.616-111.616v-655.36C1015.808 221.184 993.28 198.656 965.632 198.656zM512 59.392c88.8832 0 164.2496 58.5728 189.6448 139.264H322.3552c25.3952-80.6912 100.7616-139.264 189.6448-139.264z m452.608 844.8c0 33.3824-27.0336 60.416-60.416 60.416h-776.192C94.6176 964.608 67.584 937.5744 67.584 904.192V249.856h194.7648c0 2.6624-0.2048 5.5296-0.2048 8.192v113.664c-46.8992 11.4688-81.92 53.8624-81.92 104.448 0 59.1872 48.3328 107.52 107.52 107.52s107.52-48.3328 107.52-107.52c0-50.3808-35.0208-92.9792-81.92-104.448V258.048c0-2.6624 0-5.5296 0.2048-8.192h396.9024c0.2048 2.6624 0.2048 5.5296 0.2048 8.192v113.664c-46.8992 11.4688-81.92 53.8624-81.92 104.448 0 59.1872 48.3328 107.52 107.52 107.52s107.52-48.3328 107.52-107.52c0-50.3808-35.0208-92.9792-81.92-104.448V258.048c0-2.6624 0-5.5296-0.2048-8.192H964.608v654.336zM287.744 419.84c31.1296 0 56.32 25.1904 56.32 56.32S318.8736 532.48 287.744 532.48 231.424 507.2896 231.424 476.16s25.1904-56.32 56.32-56.32z m448.512 0c31.1296 0 56.32 25.1904 56.32 56.32S767.3856 532.48 736.256 532.48 679.936 507.2896 679.936 476.16s25.1904-56.32 56.32-56.32z" p-id="10265"></path></svg>