<?xml version="1.0" standalone="no"?><!DOCTYPE svg PUBLIC "-//W3C//DTD SVG 1.1//EN" "http://www.w3.org/Graphics/SVG/1.1/DTD/svg11.dtd"><svg t="1715348924603" class="icon" viewBox="0 0 1024 1024" version="1.1" xmlns="http://www.w3.org/2000/svg" p-id="4329" xmlns:xlink="http://www.w3.org/1999/xlink" width="200" height="200"><path d="M764.4 129.8h-51.1c0-36.3-28.8-65.1-65.1-65.1H375.7c-36.3 0-65.1 28.8-65.1 65.1h-52.1c-34.4 0-67 13-91.1 37.2-23.3 24.2-37.2 56.7-37.2 91.1V830c0 34.4 13.9 67 38.1 91.1 24.2 24.2 56.7 37.2 90.2 37.2h506.8c69.7-0.9 127.4-58.6 127.4-129.3V258c0.1-70.5-57.6-128.2-128.3-128.2z m-388.7-9.3h271.6c5.6 0 9.3 3.7 9.3 9.3v85.6c0 5.6-3.7 9.3-9.3 9.3H375.7c-5.6 0-9.3-3.7-9.3-9.3v-85.6c0-5.5 4.6-9.3 9.3-9.3zM837 829.2c0 40-32.6 72.5-72.5 72.5h-506c-40 0-72.5-32.5-72.5-72.5v-571c0-40 32.5-72.5 72.5-72.5h52.1v29.8c0 36.3 28.8 65.1 65.1 65.1h271.6c36.3 0 65.1-28.8 65.1-65.1v-29.8h51.2c40.9 0 72.5 32.6 72.5 72.5v571h0.9z m0 0" p-id="4330" fill="#bfcbd9"></path><path d="M660.3 371.6H362.7c-15.8 0-27.9 12.1-27.9 27.9 0 15.8 12.1 27.9 27.9 27.9h297.6c15.8 0 27.9-12.1 27.9-27.9 0-15.8-12.1-27.9-27.9-27.9z m0 148.8H362.7c-15.8 0-27.9 12.1-27.9 27.9 0 15.8 12.1 27.9 27.9 27.9h297.6c15.8 0 27.9-12.1 27.9-27.9 0-15.8-12.1-27.9-27.9-27.9z m0 148.8H362.7c-15.8 0-27.9 12.1-27.9 27.9 0 15.8 12.1 27.9 27.9 27.9h297.6c15.8 0 27.9-12.1 27.9-27.9 0-15.8-12.1-27.9-27.9-27.9z m0 0" p-id="4331" fill="#bfcbd9"></path></svg>