<?xml version="1.0" standalone="no"?><!DOCTYPE svg PUBLIC "-//W3C//DTD SVG 1.1//EN" "http://www.w3.org/Graphics/SVG/1.1/DTD/svg11.dtd"><svg t="1715349004545" class="icon" viewBox="0 0 1024 1024" version="1.1" xmlns="http://www.w3.org/2000/svg" p-id="5429" xmlns:xlink="http://www.w3.org/1999/xlink" width="200" height="200"><path d="M516.52 713.68l-18.2-18c-2.17-2.11-53-52.66-104.52-126.7-30.44-43.79-54.8-84-72.34-125C299 391.55 287.6 342 287.6 296.78c0-128.2 102.69-232.5 228.92-232.5s228.91 104.3 228.91 232.55c0 45.28-11.39 94.77-33.85 147.25C694 485 669.7 528 639.23 571.81c-51.5 74-102.38 121.83-104.52 123.94z m0-596.4c-97.45 0-176.74 80.52-176.74 179.5 0 137.63 128.29 288.57 176.74 341.68 48.42-53.1 176.73-204 176.73-341.63 0-99-79.29-179.54-176.73-179.54z m0 0" fill="#bfcbd9" p-id="5430"></path><path d="M516.53 395.28c-38.07 0-72.39-23.29-87-59A96.68 96.68 0 0 1 450 232.09a93.05 93.05 0 0 1 102.57-20.72c35.17 14.79 58.1 49.66 58.1 88.32-0.06 52.76-42.16 95.53-94.1 95.59z m0-138.2a41.93 41.93 0 0 0-38.75 26.29 43.08 43.08 0 0 0 9.08 46.42 41.46 41.46 0 0 0 45.7 9.24 42.6 42.6 0 0 0 25.89-39.35c0-23.51-18.78-42.56-41.92-42.59z m0 0" fill="#bfcbd9" p-id="5431"></path><path d="M64.22 902.91m27.38 0l841 0q27.38 0 27.38 27.38l0 0q0 27.38-27.38 27.38l-841 0q-27.38 0-27.38-27.38l0 0q0-27.38 27.38-27.38Z" fill="#bfcbd9" p-id="5432"></path></svg>