<?xml version="1.0" standalone="no"?><!DOCTYPE svg PUBLIC "-//W3C//DTD SVG 1.1//EN" "http://www.w3.org/Graphics/SVG/1.1/DTD/svg11.dtd"><svg t="1608191667787" class="icon" viewBox="0 0 1024 1024" version="1.1" xmlns="http://www.w3.org/2000/svg" p-id="2549" xmlns:xlink="http://www.w3.org/1999/xlink" width="200" height="200"><defs><style type="text/css"></style></defs><path d="M636.468862 824.318374l80.958583-169.021042 4.031929-5.311907c29.823478-39.359311 47.359171-86.334489 49.983126-136.317614 7.487869-139.133565-102.014215-257.72349-244.60372-265.019362-142.589505-7.295872-264.315374 99.518258-271.739244 238.587824a246.395688 246.395688 0 0 0 50.431117 163.197144l4.03193 5.311907 81.278577 168.509052h245.627702z m61.246928 27.775514c4.863915 8.127858 7.679866 17.663691 7.679866 27.775514v88.57445a56.319014 56.319014 0 0 1-57.087001 55.551028H378.233381a56.319014 56.319014 0 0 1-56.959003-55.551028v-88.57445c0-10.431817 2.87995-20.095648 7.935861-28.415502l-77.950636-161.72517a311.226554 311.226554 0 0 1-63.614887-205.948396c9.407835-175.356931 162.87715-310.138573 342.714003-300.922734 179.836853 9.215839 318.010435 158.84522 308.602599 334.202151a311.674546 311.674546 0 0 1-63.166894 172.092989l-78.078634 162.941148z m-59.966951 48.703148l-248.955643-0.639989v57.982986h248.955643v-57.342997zM478.199632 33.484214A33.279418 33.279418 0 0 1 511.41505 0.0128a33.407415 33.407415 0 0 1 34.367399 32.383433l1.279977 74.110703a33.279418 33.279418 0 0 1-33.215418 33.471414 33.407415 33.407415 0 0 1-34.367399-32.383433L478.199632 33.484214z m347.705915 111.742045a34.431397 34.431397 0 0 1 47.743164-0.703988c13.439765 12.671778 13.759759 33.471414 0.767987 46.527186l-53.375066 53.631061a34.431397 34.431397 0 0 1-47.743165 0.639989 32.383433 32.383433 0 0 1-0.703987-46.527186l53.311067-53.567062z m163.837133 318.394428A33.407415 33.407415 0 0 1 1023.98208 496.00412a33.279418 33.279418 0 0 1-33.279417 33.407415l-76.094669 1.023982a33.407415 33.407415 0 0 1-34.2394-32.447432 33.279418 33.279418 0 0 1 33.279417-33.407415l76.094669-1.023982zM149.629381 192.329434a32.383433 32.383433 0 0 1-0.767986-46.527186 34.431397 34.431397 0 0 1 47.743164-0.767986l55.039037 51.96709c13.439765 12.607779 13.759759 33.471414 0.767987 46.527186a34.431397 34.431397 0 0 1-47.743165 0.767987l-55.039037-51.967091zM34.239401 531.843493A33.407415 33.407415 0 0 1 0 499.332062a33.279418 33.279418 0 0 1 33.279418-33.407416l76.094668-1.087981a33.407415 33.407415 0 0 1 34.239401 32.511431 33.279418 33.279418 0 0 1-33.279418 33.343417L34.239401 531.843493z" fill="#bfcbd9" p-id="2550"></path></svg>