<?xml version="1.0" standalone="no"?><!DOCTYPE svg PUBLIC "-//W3C//DTD SVG 1.1//EN" "http://www.w3.org/Graphics/SVG/1.1/DTD/svg11.dtd"><svg t="1715310068279" class="icon" viewBox="0 0 1024 1024" version="1.1" xmlns="http://www.w3.org/2000/svg" p-id="6636" xmlns:xlink="http://www.w3.org/1999/xlink" width="200" height="200"><path d="M974.54848 531.13728 830.9632 603.37792c1.76768 7.02464 3.43424 14.02368 4.75008 21.25312l80.58496 0c41.23264 0 74.81344 33.7216 74.81344 75.23584 0 14.76096-5.39776 28.98432-15.11552 40.0128l-104.63232 118.34624 0 22.26304c0 41.5168-33.5296 75.264-74.81728 75.264l-568.7168 0c-41.25312 0-74.83904-33.7472-74.83904-75.264l0-22.26304-104.58496-118.34112C38.6432 728.84992 33.28 714.62656 33.28 699.8656c0-41.51424 33.58976-75.23584 74.83008-75.23584l80.53504 0c28.28544-153.89056 162.46144-270.91072 323.55072-270.91072 132.28416 0 246.28864 79.03488 298.60608 192.448l137.00864-68.86528c14.81984-7.39584 32.75008-1.43616 40.13184 13.46048C995.35488 505.62048 989.36448 523.712 974.54848 531.13728L974.54848 531.13728 974.54848 531.13728 974.54848 531.13728zM512.19584 383.80288c-144.5312 0-265.47456 103.5904-293.29664 240.82688l30.81728 0c27.25504-120.60672 134.30784-210.7392 262.48064-210.7392 109.0944 0 202.8544 65.3696 245.18912 159.13472l26.65088-13.39776C736.68608 456.07296 632.77824 383.80288 512.19584 383.80288L512.19584 383.80288 512.19584 383.80288 512.19584 383.80288zM512.19584 534.30272c61.20192 0 113.8176 37.25312 136.98304 90.32832l5.5808 0 22.33856-11.22944c-27.59936-64.17152-91.11168-109.18272-164.9024-109.18272-78.0288 0-144.39936 50.3744-169.12 120.41216l32.14976 0C398.3872 571.55584 450.99776 534.30272 512.19584 534.30272L512.19584 534.30272 512.19584 534.30272 512.19584 534.30272zM409.10976 624.62976l36.65152 0c16.4224-18.35648 39.99232-30.11712 66.43328-30.11712 26.41152 0 50.00832 11.76192 66.4384 30.11712l36.64 0c-20.77568-35.81696-58.94528-60.20096-103.0784-60.20096C468.09216 564.4288 429.87648 588.8128 409.10976 624.62976L409.10976 624.62976 409.10976 624.62976 409.10976 624.62976zM512.19584 474.10048c85.49376 0 159.10528 51.86944 191.66336 125.83936l26.71104-13.42848c-37.47584-83.86048-121.17504-142.49984-218.3744-142.49984-111.34592 0-204.9024 76.93056-231.59168 180.61696l30.8928 0C337.34656 537.70112 417.472 474.10048 512.19584 474.10048L512.19584 474.10048 512.19584 474.10048 512.19584 474.10048zM803.6096 617.09824l-14.92224 7.53152 16.77056 0C804.97792 622.06592 804.1728 619.63264 803.6096 617.09824L803.6096 617.09824 803.6096 617.09824 803.6096 617.09824zM781.56928 684.80256l-29.90464 0-29.95456 0-29.9264 0-29.90464 0-29.95968 0-29.93152 0L422.40384 684.80256l-29.95072 0-29.9136 0-29.9264 0-29.95072 0-29.92256 0-29.91744 0-29.94688 0-29.9264 0L108.11904 684.80256c-8.2688 0-14.96576 6.73536-14.96576 15.06304l119.72224 135.47392 0 45.14816c0 8.31872 6.68672 15.05792 14.95552 15.05792l568.71936 0c8.2944 0 14.98368-6.7392 14.98368-15.05792l0-45.14816L931.2512 699.8656c0-8.32896-6.7136-15.06304-14.95296-15.06304L841.4592 684.80256l-29.92512 0L781.56928 684.80256 781.56928 684.80256 781.56928 684.80256 781.56928 684.80256zM292.69376 297.77664c-12.15744 29.12128-22.0544 56.17664-11.65184 80.82944 0.064 0.20352 0.064 0.36608 0.0256 0.53248 0.2688 1.1328 0.46848 2.304 0.46848 3.49696 0 7.76576-6.26304 14.06208-13.95968 14.06208-5.36704 0-10.00192-3.06688-12.32896-7.56096l-0.03328 0c-0.1024-0.17024-0.17024-0.33664-0.23424-0.50688-0.16512-0.35712-0.33664-0.72832-0.4608-1.16224-14.46272-35.02208-0.10752-69.36576 12.85632-100.38144 12.22656-29.39392 23.0848-55.4432 11.8592-80.86784-0.0256-0.10112-0.06272-0.19968-0.09856-0.29824-0.06784-0.10624-0.06784-0.17024-0.09856-0.26368-0.03328-0.04224-0.03328-0.11136-0.03328-0.17408-0.57088-1.4656-0.89856-3.02976-0.89856-4.69888 0-7.55712 6.09152-13.7216 13.6192-13.7216 5.80224 0 10.70208 3.62496 12.704 8.7488C319.9488 231.37408 305.83168 266.32704 292.69376 297.77664L292.69376 297.77664 292.69376 297.77664 292.69376 297.77664zM631.1936 293.71392c-12.15872 29.12128-22.06336 56.17152-11.65184 80.82816 0.08064 0.2048 0.08064 0.36608 0 0.53632 0.32 1.12896 0.512 2.29248 0.512 3.49696 0 7.76576-6.25408 14.05824-13.95968 14.05824-5.39264 0-9.98528-3.06816-12.32-7.56224l-0.08064 0c-0.0512-0.17024-0.13568-0.33152-0.18816-0.50688-0.21632-0.36224-0.34944-0.72704-0.512-1.1584-14.41536-35.01696-0.11008-69.36832 12.85632-100.38528 12.2688-29.3888 23.13984-55.45088 11.8976-80.86656-0.02944-0.10752-0.08448-0.2048-0.1408-0.30208-0.0256-0.1024-0.04992-0.17152-0.0768-0.27008-0.0512-0.03328-0.0512-0.09728-0.0512-0.16128-0.51456-1.46944-0.86528-3.06816-0.86528-4.69888 0-7.56096 6.09152-13.73312 13.64096-13.73312 5.7728 0 10.68032 3.63392 12.64 8.76672C658.43584 227.30496 644.34816 262.25408 631.1936 293.71392L631.1936 293.71392 631.1936 293.71392 631.1936 293.71392zM488.41344 173.10208c-12.15872 29.12128-22.06336 56.17664-11.62112 80.832 0.04992 0.15872 0.04992 0.32768 0 0.53376 0.26368 1.1328 0.48128 2.30016 0.48128 3.49696 0 7.76192-6.2528 14.05312-13.98528 14.05312-5.3632 0-9.96864-3.09248-12.29056-7.56096l-0.06784 0c-0.06912-0.15872-0.13184-0.32896-0.20096-0.49408-0.20352-0.3712-0.33664-0.76672-0.50304-1.17248-14.42048-35.01184-0.09856-69.40288 12.87424-100.38912 12.23808-29.41952 23.1104-55.43424 11.88864-80.86656-0.05504-0.09728-0.10624-0.19072-0.13184-0.32256-0.0256-0.06912-0.08448-0.1664-0.11136-0.23936-0.0256-0.064-0.0256-0.1024-0.0256-0.1664-0.53632-1.46432-0.85632-3.06688-0.85632-4.73216 0-7.56224 6.09152-13.696 13.5808-13.696 5.79712 0 10.68416 3.63776 12.69888 8.76672C515.65952 106.69824 501.56672 141.61664 488.41344 173.10208L488.41344 173.10208 488.41344 173.10208 488.41344 173.10208zM488.41344 173.10208" fill="#515151" p-id="6637"></path></svg>