<?xml version="1.0" encoding="utf-8"?>
<svg version="1.1" xmlns:xlink="http://www.w3.org/1999/xlink" width="402px" height="10px" preserveAspectRatio="xMinYMid meet" viewBox="1096 716  402 8" xmlns="http://www.w3.org/2000/svg">
  <path d="M 1101 736  L 1101 725  A 5 5 0 0 1 1106 720 L 1488 720  A 5 5 0 0 1 1493 725 L 1493 733  " stroke-width="2" stroke="#ff3399" fill="none" />
  <path d="M 1101 731  A 3.5 3.5 0 0 0 1097.5 734.5 A 3.5 3.5 0 0 0 1101 738 A 3.5 3.5 0 0 0 1104.5 734.5 A 3.5 3.5 0 0 0 1101 731 Z M 1497.29289321881 727.892893218813  L 1493 732.185786437627  L 1488.70710678119 727.892893218813  L 1487.29289321881 729.307106781187  L 1492.29289321881 734.307106781187  L 1493 735.014213562373  L 1493.70710678119 734.307106781187  L 1498.70710678119 729.307106781187  L 1497.29289321881 727.892893218813  Z " fill-rule="nonzero" fill="#ff3399" stroke="none" />
</svg>