<?xml version="1.0" encoding="utf-8"?>
<svg version="1.1" xmlns:xlink="http://www.w3.org/1999/xlink" width="12px" height="12px" viewBox="387 1307  12 12" xmlns="http://www.w3.org/2000/svg">
  <path d="M 393 1307  C 396.36 1307  399 1309.64  399 1313  C 399 1316.36  396.36 1319  393 1319  C 389.64 1319  387 1316.36  387 1313  C 387 1309.64  389.64 1307  393 1307  Z " fill-rule="nonzero" fill="#ffffff" stroke="none" />
  <path d="M 393 1307.5  C 396.08 1307.5  398.5 1309.92  398.5 1313  C 398.5 1316.08  396.08 1318.5  393 1318.5  C 389.92 1318.5  387.5 1316.08  387.5 1313  C 387.5 1309.92  389.92 1307.5  393 1307.5  Z " stroke-width="1" stroke="#797979" fill="none" />
  <path d="M 393 1316  C 391.32 1316  390 1314.68  390 1313  C 390 1311.32  391.32 1310  393 1310  C 394.68 1310  396 1311.32  396 1313  C 396 1314.68  394.68 1316  393 1316  " fill-rule="nonzero" fill="#797979" stroke="none" />
</svg>