<?xml version="1.0" encoding="utf-8"?>
<svg version="1.1" xmlns:xlink="http://www.w3.org/1999/xlink" width="13px" height="8px" xmlns="http://www.w3.org/2000/svg">
  <defs>
    <mask fill="white" id="clip44">
      <path d="M 12.8697394789579 0.824742268041237  C 12.9565798263193 0.916380297823594  13 1.02176403207331  13 1.14089347079038  C 13 1.26002290950744  12.9565798263193 1.36540664375716  12.8697394789579 1.45704467353952  L 6.79959919839679 7.86254295532646  C 6.7127588510354 7.95418098510882  6.61289245156981 8  6.5 8  C 6.38710754843019 8  6.2872411489646 7.95418098510882  6.20040080160321 7.86254295532646  L 0.130260521042084 1.45704467353952  C 0.0434201736806948 1.36540664375716  0 1.26002290950744  0 1.14089347079038  C 0 1.02176403207331  0.0434201736806948 0.916380297823594  0.130260521042084 0.824742268041237  L 0.781563126252505 0.13745704467354  C 0.868403473613895 0.0458190148911788  0.968269873079492 0  1.0811623246493 0  C 1.19405477621911 0  1.2939211756847 0.0458190148911788  1.38076152304609 0.13745704467354  L 6.5 5.53951890034364  L 11.6192384769539 0.13745704467354  C 11.7060788243153 0.0458190148911788  11.8059452237809 0  11.9188376753507 0  C 12.0317301269205 0  12.1315965263861 0.0458190148911788  12.2184368737475 0.13745704467354  L 12.8697394789579 0.824742268041237  Z " fill-rule="evenodd" />
    </mask>
  </defs>
  <g transform="matrix(1 0 0 1 -622 -1179 )">
    <path d="M 12.8697394789579 0.824742268041237  C 12.9565798263193 0.916380297823594  13 1.02176403207331  13 1.14089347079038  C 13 1.26002290950744  12.9565798263193 1.36540664375716  12.8697394789579 1.45704467353952  L 6.79959919839679 7.86254295532646  C 6.7127588510354 7.95418098510882  6.61289245156981 8  6.5 8  C 6.38710754843019 8  6.2872411489646 7.95418098510882  6.20040080160321 7.86254295532646  L 0.130260521042084 1.45704467353952  C 0.0434201736806948 1.36540664375716  0 1.26002290950744  0 1.14089347079038  C 0 1.02176403207331  0.0434201736806948 0.916380297823594  0.130260521042084 0.824742268041237  L 0.781563126252505 0.13745704467354  C 0.868403473613895 0.0458190148911788  0.968269873079492 0  1.0811623246493 0  C 1.19405477621911 0  1.2939211756847 0.0458190148911788  1.38076152304609 0.13745704467354  L 6.5 5.53951890034364  L 11.6192384769539 0.13745704467354  C 11.7060788243153 0.0458190148911788  11.8059452237809 0  11.9188376753507 0  C 12.0317301269205 0  12.1315965263861 0.0458190148911788  12.2184368737475 0.13745704467354  L 12.8697394789579 0.824742268041237  Z " fill-rule="nonzero" fill="#666666" stroke="none" transform="matrix(1 0 0 1 622 1179 )" />
    <path d="M 12.8697394789579 0.824742268041237  C 12.9565798263193 0.916380297823594  13 1.02176403207331  13 1.14089347079038  C 13 1.26002290950744  12.9565798263193 1.36540664375716  12.8697394789579 1.45704467353952  L 6.79959919839679 7.86254295532646  C 6.7127588510354 7.95418098510882  6.61289245156981 8  6.5 8  C 6.38710754843019 8  6.2872411489646 7.95418098510882  6.20040080160321 7.86254295532646  L 0.130260521042084 1.45704467353952  C 0.0434201736806948 1.36540664375716  0 1.26002290950744  0 1.14089347079038  C 0 1.02176403207331  0.0434201736806948 0.916380297823594  0.130260521042084 0.824742268041237  L 0.781563126252505 0.13745704467354  C 0.868403473613895 0.0458190148911788  0.968269873079492 0  1.0811623246493 0  C 1.19405477621911 0  1.2939211756847 0.0458190148911788  1.38076152304609 0.13745704467354  L 6.5 5.53951890034364  L 11.6192384769539 0.13745704467354  C 11.7060788243153 0.0458190148911788  11.8059452237809 0  11.9188376753507 0  C 12.0317301269205 0  12.1315965263861 0.0458190148911788  12.2184368737475 0.13745704467354  L 12.8697394789579 0.824742268041237  Z " stroke-width="8" stroke="#797979" fill="none" transform="matrix(1 0 0 1 622 1179 )" mask="url(#clip44)" />
  </g>
</svg>