<?xml version="1.0" encoding="utf-8"?>
<svg version="1.1" xmlns:xlink="http://www.w3.org/1999/xlink" width="72px" height="10px" preserveAspectRatio="xMinYMid meet" viewBox="184 1658  72 8" xmlns="http://www.w3.org/2000/svg">
  <path d="M 512 422  L 512 415  A 5 5 0 0 0 507 410 L 194 410  A 5 5 0 0 0 189 415 L 189 1657  A 5 5 0 0 0 194 1662 L 254 1662  " stroke-width="2" stroke="#ff3399" fill="none" />
  <path d="M 515 418  L 509 418  L 509 424  L 515 424  L 515 418  Z M 248.892893218813 1657.70710678119  L 253.185786437627 1662  L 248.892893218813 1666.29289321881  L 250.307106781187 1667.70710678119  L 255.307106781187 1662.70710678119  L 256.014213562373 1662  L 255.307106781187 1661.29289321881  L 250.307106781187 1656.29289321881  L 248.892893218813 1657.70710678119  Z " fill-rule="nonzero" fill="#ff3399" stroke="none" />
</svg>