<?xml version="1.0" encoding="utf-8"?>
<svg version="1.1" xmlns:xlink="http://www.w3.org/1999/xlink" width="10px" height="128px" preserveAspectRatio="xMidYMin meet" viewBox="531 2265  8 128" xmlns="http://www.w3.org/2000/svg">
  <path d="M 535 2391  L 535 2275  A 5 5 0 0 1 540 2270 L 897 2270  A 5 5 0 0 1 902 2275 L 902 2281  " stroke-width="2" stroke="#ff3399" fill="none" />
  <path d="M 535 2386  A 3.5 3.5 0 0 0 531.5 2389.5 A 3.5 3.5 0 0 0 535 2393 A 3.5 3.5 0 0 0 538.5 2389.5 A 3.5 3.5 0 0 0 535 2386 Z M 906.292893218813 2275.89289321881  L 902 2280.18578643763  L 897.707106781187 2275.89289321881  L 896.292893218813 2277.30710678119  L 901.292893218813 2282.30710678119  L 902 2283.01421356237  L 902.707106781187 2282.30710678119  L 907.707106781187 2277.30710678119  L 906.292893218813 2275.89289321881  Z " fill-rule="nonzero" fill="#ff3399" stroke="none" />
</svg>