<?xml version="1.0" encoding="utf-8"?>
<svg version="1.1" xmlns:xlink="http://www.w3.org/1999/xlink" width="20px" height="20px" preserveAspectRatio="xMinYMid meet" viewBox="1266 1567  20 18" xmlns="http://www.w3.org/2000/svg">
  <path d="M 1217 1401  L 1285 1401  A 5 5 0 0 1 1290 1406 L 1290 1571  A 5 5 0 0 1 1285 1576 L 1276 1576  " stroke-width="2" stroke="#ff3399" fill="none" />
  <path d="M 1218.5 1397.5  A 3.5 3.5 0 0 0 1215 1401 A 3.5 3.5 0 0 0 1218.5 1404.5 A 3.5 3.5 0 0 0 1222 1401 A 3.5 3.5 0 0 0 1218.5 1397.5 Z M 1281.10710678119 1580.29289321881  L 1276.81421356237 1576  L 1281.10710678119 1571.70710678119  L 1279.69289321881 1570.29289321881  L 1274.69289321881 1575.29289321881  L 1273.98578643763 1576  L 1274.69289321881 1576.70710678119  L 1279.69289321881 1581.70710678119  L 1281.10710678119 1580.29289321881  Z " fill-rule="nonzero" fill="#ff3399" stroke="none" />
</svg>