<?xml version="1.0" standalone="no"?><!DOCTYPE svg PUBLIC "-//W3C//DTD SVG 1.1//EN" "http://www.w3.org/Graphics/SVG/1.1/DTD/svg11.dtd"><svg t="1715349074067" class="icon" viewBox="0 0 1024 1024" version="1.1" xmlns="http://www.w3.org/2000/svg" p-id="6550" xmlns:xlink="http://www.w3.org/1999/xlink" width="200" height="200"><path d="M329.862117 0.000815H124.549873A101.782701 101.782701 0 0 0 22.883628 101.66706V922.333755a101.782701 101.782701 0 0 0 101.666245 101.666245h205.312244a101.782701 101.782701 0 0 0 101.666245-101.666245V101.66706A101.782701 101.782701 0 0 0 329.862117 0.000815zM124.549873 67.778312h205.312244a33.888748 33.888748 0 0 1 33.888748 33.888748v152.499367h-273.08974V101.66706a33.946976 33.946976 0 0 1 33.888748-33.888748z m205.312244 888.444192H124.549873a33.946976 33.946976 0 0 1-33.888748-33.888749V321.943923h273.08974V922.333755a33.946976 33.946976 0 0 1-33.888748 33.888749zM785.031094 0.000815H579.660622a101.724473 101.724473 0 0 0-101.608017 101.666245V922.333755a101.724473 101.724473 0 0 0 101.608017 101.666245h205.370472a101.782701 101.782701 0 0 0 101.666244-101.666245V101.66706A101.782701 101.782701 0 0 0 785.031094 0.000815zM579.660622 67.778312h205.370472a33.946976 33.946976 0 0 1 33.888748 33.888748v152.499367H545.771874V101.66706a33.946976 33.946976 0 0 1 33.888748-33.888748z m205.370472 888.444192H579.660622a33.946976 33.946976 0 0 1-33.888748-33.888749V321.943923h273.147968V922.333755a33.946976 33.946976 0 0 1-33.888748 33.888749zM967.052102 0.000815a33.83052 33.83052 0 0 0-33.888748 33.888748V989.878339a33.888748 33.888748 0 0 0 67.952181 0V33.889563A33.83052 33.83052 0 0 0 967.052102 0.000815z" p-id="6551"></path><path d="M185.223542 157.216657a43.088786 43.088786 0 1 0 86.119345 0 43.088786 43.088786 0 0 0-86.119345 0zM640.392519 157.216657a43.088786 43.088786 0 1 0 43.088787-43.088786 43.088786 43.088786 0 0 0-43.088787 43.088786z" p-id="6552"></path></svg>